<?xml version="1.0" encoding="utf-8"?>
<!-- Generator: Adobe Illustrator 19.0.0, SVG Export Plug-In . SVG Version: 6.00 Build 0)  -->
<svg version="1.1" id="Layer_1" xmlns="http://www.w3.org/2000/svg" xmlns:xlink="http://www.w3.org/1999/xlink" x="0px" y="0px"
	 viewBox="0 0 310 190" style="enable-background:new 0 0 310 190;" xml:space="preserve">
<style type="text/css">
	.st0{fill:#352920;}
</style>
<g>
	<g>
		<path class="st0" d="M231.4,19.7c3.4-6,5.9-13.9,13.3-16c4.9,1.7,8.6,5.6,11.5,9.7c3.8,6.4,8.7,12.1,12.4,18.4
			c9.7,14.9,19.5,29.7,29,44.6c2.4,4,5.6,7.7,7.3,12.1c-4.3-3.2-7.9-7.3-11-11.6c-7.5-9.4-15.5-18.2-23-27.6
			c-5.8-6.6-11.5-13.4-17.6-19.7c-2.4-2.6-5.8-4.8-9.5-4.5c-5,1.9-8.9,5.9-13,9.3c-10.1,8.3-19.8,17-30.7,24.3
			c-8.4,6.2-17.1,11.9-26.1,17.1c0.1,4.4-0.1,8.8-0.1,13.3c3.1,5.1,8.5,8.7,10.4,14.5c-4.2-2.1-7.1-5.9-10.7-8.8
			c-18.9-16.4-37-33.8-56.8-49.3c-4.1-3.4-9.8-5.2-15.1-3.7c-3.8,1.6-7.2,4-10.7,6.2c-11.7,7.8-23.5,15.6-35.9,22.5
			c-11.5,6-22.8,12.4-34.7,17.8c-4.3,1.5-8.4,3.9-12.9,4.7c-2.6-0.2-2.6-3.1-2.7-5c8.4-4.3,16.4-9.4,24.7-13.9
			c9.7-5.1,18.9-11.1,28.2-16.9c5.2-2.8,9.8-6.4,14.7-9.7c6.6-4.9,14.1-9.5,18-17.1c2.8-5,6.9-10.8,13.2-11.1
			c5.3,0.2,9.3,4.1,13.1,7.3c9.9,10,19,20.7,28.6,31c0.3,0.1,0.9,0.3,1.2,0.4c-0.3-5.2-2.2-10.9,0.2-15.8c9.2,1.5,18.2,3.9,27.2,6
			c-0.1,5.9,0.3,11.8-0.2,17.7c-1.5,1.7,0.2,2.3,1.4,2.5c0.7-1.8,2.5-2.9,4-4c8.9-6.5,17.7-13.1,26.2-20.1
			C214.6,36.5,224,29,231.4,19.7z M152.1,52.5c0.4,4.4,0,9.1,1.1,13.4c3.6,4.6,7.8,8.7,11.6,13.1c1.4-5,2-10.2,2.6-15.4
			c0-2.8,1.1-6.4-1.5-8.5C162,52.1,156.8,52.3,152.1,52.5z"/>
	</g>
	<path class="st0" d="M234.8,45.7c6.4-1.2,13-1,19.4-0.7c0.3,4.8-0.2,9.6-1.2,14.3c-6.2,0.5-12.4,1.1-18.5,0.1
		C233.1,54.9,234.1,50.2,234.8,45.7z"/>
	<path class="st0" d="M102.3,68.8c7.9,0,15.9-1,23.8,0c2.1,1.8,2.1,4.9,2.3,7.4c-0.2,6-0.3,12.1-1.1,18c-0.3,1.3,0,3-1.3,3.9
		c-5.4,0.8-11,0.3-16.5,0.8c-6,0.2-12.2,0.2-18.1-1c-3.4-0.6-4-4.5-4.3-7.3c-0.5-7-0.1-14,1.3-20.9C93.1,69.7,97.7,68.7,102.3,68.8z
		"/>
	<path class="st0" d="M25.3,96.7c3.8,9.4,6.3,19.3,8.5,29.1c3.2,12.4,2.3,25.4,1.1,38c-4-5.1-4-12-4.8-18.2
		c-0.9-12.1-3.3-24.1-4.5-36.1C25.3,105.2,24.6,100.9,25.3,96.7z"/>
	<g>
		<path class="st0" d="M219.1,109.5c7.2-0.9,14.2,4.2,16.5,10.8c2.8,7.7,0.1,17.4-7.2,21.6c-6.1,3.8-14.9,2.8-19.7-2.7
			c-6.1-6.5-6.3-17.8-0.2-24.4C211.2,111.7,215.1,109.8,219.1,109.5z M217.1,111.7c-5.2,2-7.4,8-7.3,13.2c-0.2,4.8,0,9.9,3.1,13.8
			c3.2,4.8,11.1,4.8,14.7,0.5c3.5-3.9,3.6-9.5,3.3-14.4c-0.3-4.3-1.4-9.1-5-11.8C223.5,110.9,220,111.1,217.1,111.7z"/>
	</g>
	<path class="st0" d="M178.1,121.2c-2.4-5.4,2.6-11.5,8.1-11.7c3.2-0.5,6,1.2,9,1.8c0.6-0.5,1.7-1.4,2.3-1.8c0,3.7,0,7.5,0.1,11.2
		l-1,0.1c-0.4-4.5-3.6-9.2-8.5-9.3c-4.2-0.8-8.8,4.5-5.4,8.1c4.5,3.8,10.4,5.6,14.7,9.6c3.8,3.7,2.8,10.6-1.7,13.3
		c-4.8,3.4-10.7,1.3-15.7-0.3c-0.7,0.9-1.4,1.8-2.1,2.8c-0.1-4.1-0.2-8.3,0-12.4c2,1.7,1.6,4.7,3.3,6.5c2.6,3.1,7.1,3.9,10.9,2.8
		c2.2-0.8,2.8-3.2,3.7-5.1C192.6,128.7,181.7,128.7,178.1,121.2z"/>
	<path class="st0" d="M278.4,121.1c-2.3-5.2,2.5-11.3,7.8-11.5c3.2-0.5,6.1,1,9.1,1.9c0.9-0.7,1.7-1.4,2.5-2.2c-0.1,4,0.1,8-0.1,12
		c-1.7-2.3-1.6-5.6-3.9-7.5c-2.6-2.3-7-3.5-9.9-1.1c-2.3,1.5-2.8,5.2-0.6,7c3.9,3.2,8.7,5.1,12.8,8.1c2.5,1.7,4.2,4.8,3.9,7.9
		c-0.4,3.9-3.5,7.3-7.4,8.1c-4.2,1.2-8.4-0.6-12.4-1.7c-0.7,0.9-1.3,1.8-2,2.6c0-4.2-0.1-8.3,0-12.5c1.7,2.7,1.9,6.5,4.9,8.3
		c3.6,2.6,10.3,2.7,12.2-2.1c1.2-3.6-2.2-6.3-4.9-7.8C286.2,127.8,280.6,126,278.4,121.1z"/>
	<path class="st0" d="M66.1,110.4c5.1-0.3,10.2-0.3,15.3,0c-1.5,0.6-3.1,1-4.6,1.7c-1,4.4-0.3,9-0.5,13.5c5.1,0,10.3,0.1,15.4-0.1
		c-0.1-3.9,0.2-7.9-0.2-11.9c-0.3-2.5-3.4-2.4-5.2-3.3c5-0.3,10.1-0.3,15.1,0c-1.6,0.6-3.3,0.9-4.7,1.8c-0.6,4.5-0.2,9-0.3,13.5
		c0.1,5.1-0.3,10.3,0.3,15.4c1.4,1.1,3.2,1.4,4.8,2.1c-5,0.4-10,0.3-15,0c1.6-0.8,3.5-1,4.7-2.3c0.3-4.4,0.2-8.9,0.5-13.3
		c-5.1-0.4-10.3-0.2-15.4-0.2c0,4.6-0.3,9.1,0.2,13.7c1.5,0.9,3.1,1.5,4.6,2.2c-5,0.2-10.1,0.3-15.1-0.1c1.6-0.6,3.4-1,4.9-2
		c1-5.1,0.2-10.4,0.4-15.6c-0.2-4.5,0.6-9.2-0.5-13.6C69.4,111.4,67.7,111,66.1,110.4z"/>
	<path class="st0" d="M101.9,110.5c5.1-0.2,10.2-0.5,15.2,0.1c-1.6,0.5-3.2,0.9-4.8,1.4c-0.1,7-0.1,14-0.1,21.1
		c0.2,2-0.1,4.3,1.2,5.9c4.6,5.8,16.1,3.4,17-4.4c0.5-5.9,0.1-11.9,0.3-17.9c-0.2-1.6,0.3-3.6-1-4.8c-1.3-0.6-2.7-1-4.1-1.5
		c4.2-0.2,8.5-0.5,12.7,0.3c-1.7,0.6-4.5,0.3-5.1,2.5c-0.7,7.5,0.3,15.2-0.9,22.7c-0.5,3.2-2.9,5.8-5.6,7.2
		c-4.2,1.7-8.9,1.5-13.1,0.2c-3.5-1.4-5.8-4.8-6.2-8.5c-0.6-6.9,0.1-13.8-0.4-20.6C107.2,111.2,103.9,111.3,101.9,110.5z"/>
	<g>
		<path class="st0" d="M139.9,110.4c5.2-0.2,10.5-0.1,15.7-0.1c4,0,8.1,0.8,11.3,3.3c8.7,6.9,7.5,23-2.8,27.8
			c-7.9,3.3-16.8,1.9-25.2,1.9c1.9-1,5.4-1.1,4.9-4c0-8.4,0.1-16.8,0-25.2C144.2,111.7,141.4,111.4,139.9,110.4z M148.8,112.8
			c-0.4,9.4,0,18.8-0.2,28.2c3.8,0.9,7.9,1.2,11.5-0.7c9.5-5.3,9.4-21.6-0.2-26.8C156.5,111.7,152.3,111.8,148.8,112.8z"/>
	</g>
	<path class="st0" d="M237.6,110.6c3-0.4,6.1-0.3,9.2-0.4c7.1,8.1,13.5,16.7,20.4,24.8c-0.1-7.3,0.3-14.6-0.2-21.9
		c-0.3-2.4-3.4-1.8-5.1-2.5c4.2-0.7,8.4-0.6,12.6-0.1c-1.6,0.7-4.7,0.5-4.8,2.9c-0.5,10.2,0.1,20.5-0.3,30.8c-2.4-1.7-4-4.2-5.8-6.4
		c-5.8-6.6-10.9-13.9-16.9-20.3c-0.1,6.7,0.1,13.3,0,20c0.2,1.4-0.3,3.2,0.9,4.3c1.4,0.5,2.9,0.9,4.3,1.3c-4.1,0.8-8.4,0.5-12.6,0.2
		c1.6-0.7,3.3-1.2,4.7-2.1c0.8-8.1,0.1-16.3,0.3-24.5C245.1,112.9,240.5,111.4,237.6,110.6z"/>
	<path class="st0" d="M197,153c17.5-1.4,35.1-0.3,52.6-1c7.4-0.9,14.7,0.5,22.1,0.2c4.8,0.5,10.1,0.5,14.2,3.3
		c-5.7,2.2-11.8,1.7-17.8,2.5c-3.9,0.5-7.9,0.2-11.8,0.6c-10.8,1.1-21.6,0.1-32.4,1.1c-18.9,0.3-37.8,0.4-56.8,0.4
		c-15.3,0.8-30.6,0.8-46,0.9c-9.1,0.6-18.2,0.9-27.3,0.7c1.2-0.5,2.5-1,3.8-1.3c18.8-3.1,37.8-4.7,56.8-5.8c6.3-1,12.8-0.1,19.1-1.2
		C181.4,152.8,189.2,153.3,197,153z"/>
	<path class="st0" d="M60.8,183.6c-3.8-4.2,0-11.5,5.4-11.6c1.6,0.2,3.2,0.6,4.8,1c0.1,0.9,0.2,2.6,0.2,3.4
		c-1.3-1.5-2.5-4.1-4.9-3.6c-3.5,0-5,4.1-4.5,7c-0.4,3.9,4.6,7.7,7.8,4.6c-0.2-1.9-0.3-3.8-0.5-5.7c0.7,0,2-0.1,2.7-0.1
		c-0.4,2.2-0.6,4.5-0.7,6.7C67.6,186.7,63.4,186.7,60.8,183.6z"/>
	<path class="st0" d="M137.6,172.2c1.7,0.3,3.5,0.3,5.2-0.1c-0.5,0.3-1.5,0.9-2,1.2c-0.4,4.3,0,8.6-0.3,12.9
		c-3.3-3.2-5.8-7.2-9.2-10.3c0,3.2,0.1,6.5,0.3,9.7l-1.7,0c0.9-4.4,1.5-9.3-0.7-13.5c5,1.5,6.9,7.1,10.5,10.5c0-3.1,0-6.2,0-9.3
		C138.9,173,138.2,172.6,137.6,172.2z"/>
	<g>
		<path class="st0" d="M147.5,172.2c3.5,0.7,7.5-0.4,10.7,1.4c2.5,1.6,0.9,4.4-0.8,5.9c0.6,0.2,1.8,0.7,2.4,1
			c0.3,2.1-0.2,3.9-1.9,5.3c-2.8-0.2-5.6-0.1-8.4,0c0.5-4.2,0.3-8.3,0.2-12.5C149.2,172.9,148,172.4,147.5,172.2z M151.7,173.1
			c0,1.9,0,3.8,0,5.8c1.9-0.2,5.6,0.3,5.5-2.6C157.6,173.2,153.9,173,151.7,173.1z M151.7,179.6c0,1.7,0,3.5,0,5.2
			c2,0.3,4.3,0.5,5.8-1.2c0.9-1.4-0.5-2.7-1-3.9C154.8,179.7,153.3,179.6,151.7,179.6z"/>
	</g>
	<path class="st0" d="M225.3,172.3c1.6,0.2,3.3,0.2,4.9,0c-0.7,0.4-1.3,0.7-2,1.1c-0.1,4.3,0,8.6-0.1,13c-3.1-3.5-5.8-7.3-8.9-10.8
		c-0.1,3.3-0.1,6.6,0.1,10c-0.3,0.1-1,0.3-1.4,0.4c-0.3-4.5,1.6-9.7-1.3-13.6c1.1,0.5,2.5,0.4,3.4,1.4c2.5,2.7,4.6,5.8,7,8.7
		c0-3,0.3-6.1-0.1-9.1C226.6,172.9,225.7,172.5,225.3,172.3z"/>
	<path class="st0" d="M232.3,183.2c-3.2-4.5,0.8-11.4,6.2-11.2c1.6,0.2,3.1,0.7,4.7,1.1c0,1.1,0,2.1,0.1,3.2
		c-1.4-1.4-2.4-3.9-4.8-3.5c-5.3,0-6.6,8-3.2,11.2c1.5,1.6,3.8,1.1,5.8,1.1c-0.3-2.2,0.9-5.2-1.3-6.7c1.5,0.2,3.1,0.2,4.7,0.2
		c-0.3,0.3-0.9,0.8-1.2,1.1c0,1.8,0,3.5,0.1,5.3C239.6,186.8,234.8,186.7,232.3,183.2z"/>
	<path class="st0" d="M246.2,176.3c-0.5-2.5,2.1-3.7,3.8-4.7c1,0.5,1.9,0.9,2.9,1.4c0.4-0.2,1.1-0.7,1.4-0.9c0,1.7,0,3.4,0,5
		c-0.8-2.4-3.2-5.9-6-3.6c-2,2.2,1.1,3.6,2.7,4.6c1.9,1.2,5.1,2.6,4,5.5c-1.4,3.5-5.9,1.8-8.8,2c0-0.9-0.1-2.6-0.1-3.5
		c1.3,1.3,2.7,3.4,4.9,3.1c1.7-0.1,2.5-1,2.4-2.7C251.4,180.1,247.4,179.5,246.2,176.3z"/>
	<path class="st0" d="M272.8,172.3c3.5,0.2,7,0.2,10.4,0.2c0.2,1,0.3,1.9,0.5,2.9c-1.1-1.5-2.8-2-4.6-1.9c0,4-0.1,8,0.1,12.1
		c-0.6,0-1.9,0-2.6-0.1c0.4-4,0.3-8,0.2-12C275.5,173.2,274.1,172.8,272.8,172.3z"/>
	<path class="st0" d="M78.4,175.9c0.7-1.2,1.5-2.3,2.2-3.5c1.9,4.5,3.4,9.2,6.1,13.3c-0.7-0.1-2-0.2-2.7-0.2
		c-1.2-0.8-0.8-2.7-1.4-3.9c-1.9-0.1-3.7-0.1-5.6-0.1c-0.3,1.4-0.5,2.7-0.8,4.1c-0.8,0-1.5,0-2.3,0c1.7-2.4,2.9-5.1,4.3-7.7l0,2.8
		c1.2-0.1,2.4-0.1,3.5-0.2C80.8,178.9,81.3,175.2,78.4,175.9z"/>
	<g>
		<path class="st0" d="M89.9,172.5c2.3,0.2,4.7,0.3,7,0.3c0.6,1.1,1.7,2.1,1.5,3.5c0.1,1.8-1.8,2.5-2.9,3.5c1.4,2,3,4,4.6,5.8
			c-4.3,0.6-4.4-5.5-8.3-6.1c0,2,0.1,4,0.3,6c-0.6,0-1.9,0-2.5,0C90.3,181.3,90,176.9,89.9,172.5z M91.9,173.1c0,2-0.1,4,0,6
			c1.7-0.2,4.5-0.5,4.5-2.8C97,173.6,93.7,173.5,91.9,173.1z"/>
	</g>
	<g>
		<path class="st0" d="M103.4,172.5c3.4,0.5,7.9-0.9,10.2,2.5c2.5,3.4,1.3,8.8-2.7,10.5c-2.6,0.2-5.3,0-7.9,0.1
			C103.8,181.2,103.4,176.8,103.4,172.5z M105.4,173.1c-0.1,3.9-0.1,7.9,0,11.8c2.3,0.1,4.8-0.1,6.4-1.8c1.1-2.4,1.3-5.6-0.2-7.9
			C110.2,173.3,107.5,173.4,105.4,173.1z"/>
	</g>
	<path class="st0" d="M117.9,172.5c2.8,0.3,5.7,0.3,8.5,0.2c0,0.7,0,2,0,2.7c-0.5-0.7-1-1.4-1.5-2.1c-1.7,0-3.4,0-5,0
		c0,1.8,0,3.6-0.1,5.4c2,0,4-0.3,5.7-1.5c0,1.2-0.1,2.3-0.1,3.5c-0.4-0.3-1-1-1.4-1.3c-1.4,0-2.8,0-4.2,0c0,1.8,0,3.6,0.1,5.5
		c2.8,0.4,5.7,0,7.8-2.1c-0.3,0.9-0.7,1.7-1.1,2.6c-2.9,0.3-5.9,0-8.8,0.2C118.1,181.2,118.1,176.9,117.9,172.5z"/>
	<path class="st0" d="M162.9,172.8c0.6,0,1.7-0.1,2.2-0.1c-0.2,3.5-0.5,7,0,10.5c1.1,2.9,5.4,2.5,7.1,0.4c0.5-3.7,0.3-7.4,0.1-11
		l1.7,0c-1,3.6-0.5,7.4-0.8,11c-1.9,3.7-8.5,3.8-9.9-0.4C162.8,179.7,163.1,176.2,162.9,172.8z"/>
	<path class="st0" d="M177.6,172.5c0.7,0,2,0,2.6,0c-0.3,4.4-0.5,8.8,0,13.1c-0.6,0-2,0-2.6,0C177.9,181.2,177.9,176.8,177.6,172.5z
		"/>
	<path class="st0" d="M184.5,172.5c0.6,0,1.7,0,2.3,0c-0.4,4.1-0.4,8.1-0.2,12.2c1.9,0,3.8-0.1,5.7-0.2c0.6-0.7,1.2-1.3,1.8-2
		c-0.4,1-0.8,2-1.2,3.1c-2.8,0-5.7,0-8.5-0.1C184.8,181.2,184.7,176.9,184.5,172.5z"/>
	<path class="st0" d="M196.5,172.2c0.7,0.2,2.2,0.5,3,0.7c-0.2,0.4-0.5,1.3-0.7,1.7c-0.2,3.4-0.1,6.8-0.1,10.2
		c3.2,0.9,7.3-0.7,7.6-4.4c0.7-3.2-1.5-5.7-3.9-7.5c5.9-1.1,8.3,7.9,4.1,11.1c-2.6,2.7-6.7,1.1-10,1.6
		C197,181.1,196.9,176.7,196.5,172.2z"/>
	<path class="st0" d="M211.5,172.7c0.5,0,1.6,0,2.2,0c-0.4,4.3-0.4,8.6,0,12.9c-0.7,0-2,0-2.7,0C212,181.3,211.6,177,211.5,172.7z"
		/>
	<path class="st0" d="M263.2,172.5c0.7,0,2,0,2.7,0c-0.5,4.1-0.3,8.1-0.3,12.2c2.8,0.1,5.8,0.2,7.9-2c-0.5,1-0.9,1.9-1.4,2.9
		c-3,0-5.9,0-8.9,0C263.7,181.2,263.7,176.8,263.2,172.5z"/>
	<path class="st0" d="M285.9,172.4c0.7,0,2.1,0.1,2.8,0.1c-0.5,4-0.3,8.1-0.4,12.2c2.1,0.5,4.5,0.2,6.2-1.4c1.6-2.3,1.6-5.7,0-8
		c-1.1-1.3-2.9-1.9-4.3-2.8c1.7,0.3,3.8-0.1,5.2,1.1c3.2,2.3,3.5,7.9,0.5,10.4c-2.6,2.6-6.5,1-9.7,1.5
		C286.7,181.2,286.8,176.7,285.9,172.4z"/>
</g>
</svg>
