<?xml version="1.0" encoding="utf-8"?>
<!-- Generator: Adobe Illustrator 19.0.0, SVG Export Plug-In . SVG Version: 6.00 Build 0)  -->
<svg version="1.1" id="Layer_1" xmlns="http://www.w3.org/2000/svg" xmlns:xlink="http://www.w3.org/1999/xlink" x="0px" y="0px"
	 viewBox="0 0 405 260" style="enable-background:new 0 0 405 260;" xml:space="preserve">
<style type="text/css">
	.st0{fill:#352920;}
</style>
<g id="XMLID_7_">
	<g id="XMLID_1184_">
		<g id="XMLID_1194_">
			<g id="XMLID_1198_">
				<path id="XMLID_1199_" class="st0" d="M38.6,139.6c0,0,1.8-5.4,3.8-10.8c2-5.4,4.3-10.6,4.3-10.6s1.3-2.5,3.4-6.3
					c2.1-3.7,5-8.7,8.2-13.4c3.2-4.7,6.9-9.2,10-12.1c1.5-1.5,2.9-2.7,3.9-3.5c1-0.8,1.5-1.2,1.5-1.2s-0.5,0.5-1.5,1.3
					c-0.9,0.8-2.2,2.1-3.7,3.6c-2.9,3.1-6.3,7.7-9.3,12.5c-3,4.8-5.6,9.9-7.5,13.7c-1.9,3.8-3.1,6.4-3.1,6.4s-2.8,5-5.3,10.1
					C40.9,134.3,38.6,139.6,38.6,139.6z"/>
			</g>
		</g>
	</g>
	<g id="XMLID_1176_">
		<g id="XMLID_1186_">
			<g id="XMLID_1190_">
				<path id="XMLID_1191_" class="st0" d="M70.1,83.2c0,0,0.5-0.3,1.3-0.2c0.8,0.1,1.9,0.8,2.4,1.9c0.5,1.1,0.5,2.3,0.4,3.2
					C74.1,89,74,89.5,74,89.5l-5.8,15.3l3.7-15.9c0,0,0.2-0.5,0.5-1.1c0.3-0.7,0.5-1.5,0.4-2.4c-0.1-0.8-0.7-1.7-1.4-2
					c-0.3-0.2-0.6-0.2-0.8-0.2C70.2,83.2,70.1,83.2,70.1,83.2z"/>
			</g>
		</g>
	</g>
	<g id="XMLID_1168_">
		<g id="XMLID_1178_">
			<g id="XMLID_1182_">
				<path id="XMLID_1183_" class="st0" d="M63.8,105.5c0,0-0.1-0.2-0.2-0.6c-0.1-0.4-0.2-0.9-0.3-1.4c-0.2-1.1-0.1-2.2-0.1-2.2
					s0.2-0.5,0.6-1.2c0.4-0.7,1-1.6,1.8-2.3c0.4-0.4,0.8-0.7,1.1-1c0.2-0.2,0.4-0.3,0.6-0.4c0.2-0.1,0.4-0.3,0.6-0.3
					c0.4,0,0.8,0.1,0.9,0.3c0.1,0.1,0,0.2-0.1,0.3c-0.1,0-0.1,0-0.1,0c0,0,0.2-0.1,0.1-0.2c-0.1-0.1-0.5-0.2-0.8-0.1
					c-0.1,0-0.2,0.2-0.4,0.3c-0.1,0.2-0.3,0.3-0.4,0.5c-0.3,0.4-0.5,0.8-0.7,1.2c-0.5,0.8-0.8,1.7-0.9,2.4c-0.2,0.7-0.2,1.1-0.2,1.1
					s-0.5,0.8-0.9,1.7C64,104.5,63.8,105.5,63.8,105.5z"/>
			</g>
		</g>
	</g>
	<g id="XMLID_1160_">
		<g id="XMLID_1170_">
			<g id="XMLID_1174_">
				<path id="XMLID_1175_" class="st0" d="M74,86.5c0,0,0,0-0.1,0c-0.1,0-0.2-0.2-0.1-0.3c0-0.2,0.1-0.3,0.3-0.5
					c0.1-0.1,0.2-0.2,0.3-0.2c0.1-0.1,0.2-0.1,0.3-0.2c0.5-0.2,1.1-0.4,1.8-0.5c0.7-0.1,1.6,0,2.3,0.5c0.7,0.5,1.1,1.4,1.3,2.1
					c0.2,0.7,0.3,1.3,0.4,1.9c0.1,0.5,0.2,1,0.2,1.3c0,0.3,0.1,0.5,0.1,0.5s0,1.4-0.1,3.6c-0.1,2.1-0.5,4.9-0.9,7.7
					c-0.4,2.8-0.8,5.5-1.1,7.6c-0.3,2.1-0.4,3.5-0.4,3.5s0-1.4,0-3.5c0-2.1,0.2-4.9,0.3-7.7c0.1-2.8,0.2-5.6,0.1-7.6
					c-0.1-2.1-0.2-3.4-0.2-3.4s0-0.2,0-0.5c0-0.3,0-0.7,0-1.3c0-1,0.1-2.4-0.6-3.2c-0.3-0.4-0.9-0.6-1.5-0.7c-0.6-0.1-1.2,0-1.7,0.1
					c-0.1,0-0.2,0.1-0.4,0.1c-0.1,0-0.2,0.1-0.3,0.1c-0.2,0.1-0.3,0.3-0.3,0.4C73.7,86.4,74.1,86.5,74,86.5z"/>
			</g>
		</g>
	</g>
	<g id="XMLID_1152_">
		<g id="XMLID_1162_">
			<g id="XMLID_1166_">
				<path id="XMLID_1167_" class="st0" d="M67.3,157c0,0-0.1-3.7,0.3-7.4c0.4-3.7,1.1-7.3,1.1-7.3s0.6-1.8,1.5-4.4
					c0.9-2.6,2.3-6,3.6-9.4c2.6-6.8,5.3-13.7,5.3-13.7s-2.1,7-4.2,14c-1,3.5-2.1,7-2.8,9.6c-0.7,2.6-1.1,4.4-1.1,4.4
					s-1.3,3.4-2.2,6.9C67.7,153.4,67.3,157,67.3,157z"/>
			</g>
		</g>
	</g>
	<g id="XMLID_1144_">
		<g id="XMLID_1154_">
			<g id="XMLID_1158_">
				<path id="XMLID_1159_" class="st0" d="M69.4,138.7c0,0-1-0.3-1.9-0.2c-0.9,0.1-1.7,0.4-1.7,0.4c-0.3,0-0.5,0-0.8,0l0.7-1.2
					c0.1,1.9,1.6,3.8,3.7,4.6c-2.3-0.1-4.6-1.6-5.6-4.1l-0.3-0.8l1-0.4c0.4-0.1,0.7-0.3,1.1-0.3c0,0,0.3,0,0.7,0.2
					c0.4,0.1,0.9,0.3,1.4,0.6C68.7,137.9,69.4,138.7,69.4,138.7z"/>
			</g>
		</g>
	</g>
	<g id="XMLID_1136_">
		<g id="XMLID_1146_">
			<g id="XMLID_1150_">
				<path id="XMLID_1151_" class="st0" d="M49.1,125.8c0,0-0.3,0-0.6,0c-0.4,0.1-0.8,0.3-1,0.7c-0.3,0.3-0.4,0.7-0.4,1
					c0,0.3,0,0.4,0,0.4c-0.3,0.4-0.2,1.1,0.2,1.7c0.4,0.6,1.2,1.1,2,1.1l-0.3,0.3c0.2-0.8,0.3-1.6,0.2-2.4c0.4,0.8,0.5,1.6,0.5,2.5
					l0,0.2l-0.3,0.1c-1,0.2-2.2-0.1-3.1-0.7c-0.9-0.7-1.6-1.9-1.4-3.4c0,0,0.2-0.4,0.5-0.8c0.3-0.4,0.9-0.8,1.5-1
					c0.6-0.2,1.2-0.2,1.6-0.1C48.9,125.6,49.1,125.8,49.1,125.8z"/>
			</g>
		</g>
	</g>
	<g id="XMLID_1128_">
		<g id="XMLID_1138_">
			<g id="XMLID_1142_">
				<path id="XMLID_1143_" class="st0" d="M61.5,107.5C61.5,107.5,61.4,107.5,61.5,107.5c-0.1,0-0.1-0.1-0.1-0.1
					c0-0.1,0-0.2,0.2-0.2c0.1,0,0.3,0.2,0.3,0.3c0.1,0.3,0,0.6,0,0.8c0,0.3-0.1,0.6-0.1,0.9c-0.1,1.2-0.2,2.4-0.2,2.4
					s-1,2.1-2.1,4.3c-0.5,1.1-1,2.1-1.4,2.9c-0.2,0.4-0.2,0.7,0,0.8c0.2,0.1,0.4,0,0.3,0c0,0-0.1,0.2-0.4,0.1
					c-0.1,0-0.3-0.2-0.3-0.4c0-0.2,0-0.4,0-0.7c0.2-0.9,0.4-2,0.7-3.2c0.5-2.3,1-4.6,1-4.6s0.6-1,1.3-2c0.2-0.3,0.3-0.5,0.5-0.8
					C61.3,107.8,61.5,107.6,61.5,107.5c0.1-0.1,0.1-0.2,0-0.1C61.3,107.5,61.5,107.5,61.5,107.5z"/>
			</g>
		</g>
	</g>
	<g id="XMLID_1120_">
		<g id="XMLID_1130_">
			<g id="XMLID_1134_">
				<path id="XMLID_1135_" class="st0" d="M62.3,106.8c0,0,2.9,0.8,5.8,1.5c0.7,0.2,1.5,0.4,2.1,0.6c0.3,0.1,0.7,0.2,1,0.3
					c0.3,0.1,0.7,0.2,1.1,0.5c0.2,0.1,0.4,0.4,0.5,0.6c0.2,0.3,0.2,0.5,0.3,0.8c0.1,0.4,0,0.8-0.1,1c-0.1,0.5-0.2,0.7-0.2,0.7
					c0,0-0.3,0.5-0.6,0.9c-0.2,0.3-0.3,0.5-0.5,0.9c-0.2,0.4-0.4,0.8-0.5,1.3c-0.4,1-0.7,2.2-1,3.6c-0.2,0.7-0.4,1.4-0.7,2.1
					c-0.1,0.4-0.3,0.7-0.4,1.1c-0.1,0.2-0.1,0.3-0.3,0.6c-0.1,0.1-0.2,0.3-0.3,0.4c-0.1,0.1-0.4,0.2-0.5,0.2c-0.4,0-0.6-0.1-0.9-0.2
					c-0.2-0.1-0.4-0.3-0.5-0.3l-0.5-0.3c-0.1-0.1-0.3-0.1-0.4-0.2c-0.6-0.2-1.3-0.4-2-0.4c-1.4-0.1-2.7-0.1-3.8-0.3
					c-1.1-0.2-2-0.6-2.5-1c-0.1-0.1-0.2-0.2-0.4-0.2c-0.1,0-0.2,0-0.2,0.1c0,0.1,0.1,0.1,0.1,0.1c0,0,0,0,0,0s0,0,0,0.1
					c0,0-0.1,0-0.2-0.1c-0.1-0.1,0.1-0.2,0.2-0.2c0.1,0,0.3,0.1,0.4,0.2c0.5,0.4,1.4,0.7,2.5,0.7c1.1,0.1,2.4-0.1,3.8-0.1
					c0.7,0,1.5,0.1,2.3,0.3c0.2,0.1,0.4,0.1,0.6,0.2l0.5,0.2c0.2,0.1,0.3,0.2,0.5,0.2c0.1,0.1,0.2,0.1,0.2,0c0,0-0.1,0,0,0
					c0,0,0,0,0-0.1c0-0.1,0.1-0.3,0.2-0.5c0.1-0.3,0.2-0.7,0.3-1c0.2-0.7,0.3-1.4,0.4-2.1c0.2-1.4,0.4-2.7,0.7-3.8
					c0.1-0.6,0.3-1.1,0.5-1.6c0.2-0.5,0.4-0.9,0.5-1.2c0.4-0.7,0.4-0.8,0.5-0.9c0,0,0.1-0.1,0.2-0.3c0-0.1,0.1-0.2,0.1-0.2
					c0,0,0,0,0.1,0.1c-0.1-0.1,0,0,0-0.1c0-0.1-0.8-0.5-1.4-0.7c-0.6-0.3-1.3-0.6-2-0.9C65,108.1,62.3,106.8,62.3,106.8z"/>
			</g>
		</g>
	</g>
	<g id="XMLID_1112_">
		<g id="XMLID_1122_">
			<g id="XMLID_1126_">
				<path id="XMLID_1127_" class="st0" d="M47.8,150l0.2-2.3c0-0.4,0.1-0.8,0.2-1.2c0.1-0.4,0.4-0.9,0.9-1.1
					c0.1-0.1,0.5-0.3,0.7-0.3c0.3,0,0.5,0,0.7,0c0.5,0.1,0.9,0.2,1.3,0.3c0.7,0.2,1.5,0.4,1.8,0.3l1-0.3l0.1,1.3l0.1,1.5
					c0,0-0.1,1.3-0.3,3.3c-0.1,1-0.2,2.1-0.3,3.3l0,0.1c0,0,0,0-0.1,0c0,0-0.1,0-0.1,0c0,0.1,0.1-0.2,0.1-0.1c0,0,0,0,0.1,0
					c0,0,0.3,0.1,0.4,0.1c0.1,0,0.2,0.1,0.4,0.1c0.6,0.1,1.2,0,1.9,0c1.4-0.2,2.9,0.1,4.1,0.5c1.2,0.4,2.3,0.9,3.2,1.3
					c0.9,0.4,1.7,0.6,2.3,0.6c0.3,0,0.5,0.1,0.7,0.1c0.2,0,0.2,0,0.2,0s-0.1,0-0.2,0c-0.2,0-0.4,0-0.7,0c-0.6,0-1.4-0.1-2.4-0.4
					c-2-0.5-4.5-1.7-7-1c-0.6,0.1-1.3,0.3-2.1,0.3c-0.2,0-0.4,0-0.6-0.1c-0.3-0.1-0.3,0-0.6-0.1c-0.2-0.1-0.5-0.2-0.7-0.5
					c-0.2-0.3-0.3-0.6-0.3-0.8c0-0.5,0-0.7,0-1c0-0.3,0-0.6,0-0.9c0-0.6,0-1.1,0-1.6c0-2,0-3.4,0-3.4l0.2-1.5l1.1,1
					c-1.2,0-1.9-0.5-2.6-0.9c-0.7-0.4-1.2-0.7-1.7-0.5c-0.5,0.1-0.9,0.8-1.1,1.5L47.8,150z"/>
			</g>
		</g>
	</g>
	<g id="XMLID_1104_">
		<g id="XMLID_1114_">
			<g id="XMLID_1118_">
				<path id="XMLID_1119_" class="st0" d="M39,138.5c0,0-0.3,1.7-0.5,3.4c-0.2,1.7-0.3,3.4-0.3,3.4s-0.3,0.8-0.6,2
					c0,0.2-0.1,0.3-0.1,0.5l-0.1,0.2l0,0.1c0,0,0.1,0-0.1,0c-0.5,0-0.4,0.3-0.2-0.2c0-0.1,0.2,0.1,0.4,0.1c0.8,0.2,1.6,0.4,2.4,0.7
					c3.3,0.9,6.5,1.8,6.5,1.8s-3.4-0.4-6.7-0.7c-0.8-0.1-1.7-0.2-2.5-0.3c-0.2,0-0.3,0-0.7-0.1c-0.2-0.1-0.4-0.2-0.6-0.4
					c-0.2-0.2-0.2-0.5-0.3-0.7c0-0.4,0-0.6,0-0.7c0-0.2,0-0.3,0.1-0.5c0.1-1.3,0.3-2.1,0.3-2.1s0.7-1.6,1.4-3.2
					C38.1,140,39,138.5,39,138.5z"/>
			</g>
		</g>
	</g>
	<g id="XMLID_1096_">
		<g id="XMLID_1106_">
			<g id="XMLID_1110_">
				<path id="XMLID_1111_" class="st0" d="M9.9,235.6c0,0,0-0.1-0.1-0.4c0-0.2-0.1-0.6-0.2-1c-0.1-0.9-0.2-2.2-0.1-3.7
					c0.1-3.1,1.2-7.1,2.3-11c1.1-3.9,2.2-7.9,3.2-10.8c1-2.9,1.7-4.8,1.7-4.8s0.4-0.9,1.2-2.6c0.8-1.6,2-3.9,3.5-6.6
					c3.1-5.4,7.7-12.1,12.2-18.9c4.5-6.8,9-13.6,12.6-18.5c1.8-2.5,3.4-4.5,4.6-5.8c1.1-1.4,1.8-2.1,1.8-2.1s-0.7,0.8-1.8,2.2
					c-1.1,1.4-2.6,3.4-4.3,6c-3.5,5-7.7,12-12,18.9c-4.3,6.9-8.6,13.8-11.5,19.2c-1.4,2.7-2.5,4.9-3.2,6.6c-0.7,1.6-1.1,2.5-1.1,2.5
					s-0.9,1.8-2,4.6c-1.2,2.8-2.6,6.6-3.9,10.5c-1.4,3.8-2.6,7.7-3,10.7c-0.2,1.5-0.2,2.8-0.1,3.7c0,0.4,0.1,0.8,0.1,1
					C9.8,235.5,9.9,235.6,9.9,235.6z"/>
			</g>
		</g>
	</g>
	<g id="XMLID_1088_">
		<g id="XMLID_1098_">
			<g id="XMLID_1102_">
				<path id="XMLID_1103_" class="st0" d="M2.6,236.1c0,0-0.1-0.5-0.2-1.4c-0.1-0.9-0.2-2.1-0.2-3.6c0-3,0.6-7,1.6-10.9
					c2-7.8,4.6-15.4,4.6-15.4s0.4-0.9,1-2.6c0.3-0.8,0.7-1.8,1.2-2.9c0.5-1.1,1-2.4,1.6-3.8c2.4-5.5,6-12.7,9.9-19.6
					c3.9-7,8.3-13.7,11.7-18.6c1.7-2.4,3.2-4.5,4.2-5.9c1-1.4,1.6-2.2,1.6-2.2s-0.6,0.8-1.6,2.3c-1,1.4-2.4,3.5-4,6
					c-3.3,5-7.3,11.9-11,18.9c-3.7,7.1-6.9,14.3-9.2,19.9c-0.5,1.4-1.1,2.7-1.5,3.8c-0.4,1.1-0.8,2.1-1.1,2.9
					c-0.6,1.6-0.9,2.6-0.9,2.6s-3.1,7.3-5.6,14.9c-1.3,3.8-2.2,7.6-2.4,10.6c-0.1,1.5-0.1,2.7-0.1,3.6
					C2.5,235.6,2.6,236.1,2.6,236.1z"/>
			</g>
		</g>
	</g>
	<g id="XMLID_1080_">
		<g id="XMLID_1090_">
			<g id="XMLID_1094_">
				<path id="XMLID_1095_" class="st0" d="M54.2,155.7c0,0,0.2,0,0.1-0.2c0-0.1-0.1-0.2-0.3-0.2c-0.1,0-0.2,0.2-0.3,0.3
					c0,0.7,0.2,1.9,0.4,3.2c0.3,2.7,0.7,6.2,0.9,9.8c0.2,3.6,0.3,7.2,0.3,9.8c0,2.7,0,4.5,0,4.5s-0.2,3.6-1,8.9
					c-0.7,5.3-1.9,12.4-3.8,19.3c-1,3.5-2.4,6.8-4,9.8c-1.6,3-3.1,5.7-4.4,8c-2.6,4.7-4.3,7.8-4.3,7.8s1.6-3.2,4-7.9
					c2.3-4.8,6.1-11,7.6-17.9c1.6-6.9,2.5-14,3-19.2c0.5-5.3,0.6-8.8,0.6-8.8s0.2-1.8,0.4-4.4c0.2-2.7,0.4-6.2,0.4-9.8
					c0-3.6,0-7.1-0.2-9.8c0-0.7-0.1-1.3-0.1-1.8c0-0.5-0.1-1,0-1.4c0-0.2,0.2-0.4,0.4-0.4c0.2,0,0.3,0.2,0.3,0.2
					C54.4,155.5,54.3,155.6,54.2,155.7C54.2,155.7,54.2,155.7,54.2,155.7z"/>
			</g>
		</g>
	</g>
	<g id="XMLID_1072_">
		<g id="XMLID_1082_">
			<g id="XMLID_1086_">
				<path id="XMLID_1087_" class="st0" d="M65.4,156.9c0,0,0.1,1.8,0.3,4.4c0.2,2.7,0.3,6.2,0.5,9.8c0.1,3.6,0.2,7.1,0.3,9.8
					c0,2.7,0,4.5,0,4.5s-0.2,3.6-0.8,8.9c-0.6,5.3-1.8,12.4-3.8,19.3c-1.9,6.9-4.7,13.5-7.3,18.2c-0.6,1.2-1.3,2.2-1.8,3.2
					c-0.6,0.9-1.1,1.7-1.5,2.4c-0.9,1.3-1.4,2-1.4,2s0.5-0.8,1.3-2.1c0.4-0.7,0.9-1.5,1.4-2.4c0.5-1,1.1-2,1.7-3.2
					c2.4-4.7,4.9-11.4,6.6-18.3c1.7-6.9,2.6-13.9,3-19.2c0.4-5.3,0.5-8.8,0.5-8.8s0.1-1.8,0.4-4.4c0.2-2.7,0.4-6.2,0.5-9.8
					c0.1-3.6,0.2-7.1,0.3-9.8C65.4,158.7,65.4,156.9,65.4,156.9z"/>
			</g>
		</g>
	</g>
	<g id="XMLID_1064_">
		<g id="XMLID_1074_">
			<g id="XMLID_1078_">
				<path id="XMLID_1079_" class="st0" d="M42.1,20.2c0,0-0.1,0.6-0.2,1.6c-0.1,1-0.1,2.2-0.1,3.5c0,2.6,0.3,5.1,0.3,5.1
					S42,31.7,42,33.6c0,1.9,0.2,4.4,0.6,6.9c0.4,2.5,1,5,1.7,6.8c0.3,0.9,0.8,1.6,1.2,1.9c0.4,0.4,0.7,0.5,0.7,0.5s-0.3-0.1-0.8-0.5
					c-0.5-0.3-1-1-1.4-1.9c-0.9-1.8-1.8-4.2-2.5-6.7c-0.7-2.5-1.2-5.1-1.4-7.1c-0.2-2-0.3-3.3-0.3-3.3s0.3-2.6,0.9-5.2
					c0.3-1.3,0.6-2.5,0.9-3.5C41.9,20.8,42.1,20.2,42.1,20.2z"/>
			</g>
		</g>
	</g>
	<g id="XMLID_1056_">
		<g id="XMLID_1066_">
			<g id="XMLID_1070_">
				<path id="XMLID_1071_" class="st0" d="M30.6,51.3c0,0-0.5-0.4-1.3-1.1c-0.8-0.7-1.8-1.7-2.7-2.8c-1.8-2.2-3.2-4.7-3.2-4.7
					s-0.6-1.3-1.1-3.4c-0.6-2.1-1-4.9-1-7.7c0-2.8,0.5-5.7,1.5-7.5c0.5-0.9,1.1-1.6,1.5-2c0.2-0.2,0.4-0.4,0.5-0.5
					c0.1-0.1,0.2-0.2,0.2-0.2s-0.1,0.1-0.2,0.2c-0.1,0.1-0.3,0.3-0.5,0.5c-0.4,0.5-0.9,1.2-1.3,2.1c-0.8,1.9-1,4.6-0.7,7.3
					c0.3,2.7,1,5.3,1.7,7.2c0.7,1.9,1.3,3.1,1.3,3.1s0.8,2.6,2.1,5c0.6,1.2,1.4,2.4,2,3.2C30.1,50.8,30.6,51.3,30.6,51.3z"/>
			</g>
		</g>
	</g>
	<g id="XMLID_1048_">
		<g id="XMLID_1058_">
			<g id="XMLID_1062_">
				<path id="XMLID_1063_" class="st0" d="M27,19l-2.4,0.3l0-0.8c1.5-0.1,2.9-0.3,4.3-0.5c0,0,3.3,0.4,6.7,0.4
					c3.4,0,6.7-0.3,6.7-0.3s-3.3,0.9-6.6,1.4c-3.4,0.6-6.8,0.8-6.8,0.8c-1.5-0.3-2.9-0.6-4.4-1l0-0.8L27,19z"/>
			</g>
		</g>
	</g>
	<g id="XMLID_1040_">
		<g id="XMLID_1050_">
			<g id="XMLID_1054_">
				<path id="XMLID_1055_" class="st0" d="M29.5,51.2c0,0,1,0,2-0.3c1-0.2,1.8-0.5,1.8-0.5s0.4,0.1,1.1,0.1c0.7,0,1.6,0,2.5-0.1
					c1.9-0.2,3.7-1.1,3.7-1.1s-1.5,1.3-3.3,2.1c-0.9,0.4-1.9,0.8-2.6,1c-0.8,0.2-1.3,0.3-1.3,0.3s-1.1-0.2-2-0.6
					C30.4,51.7,29.5,51.2,29.5,51.2z"/>
			</g>
		</g>
	</g>
	<g id="XMLID_1032_">
		<g id="XMLID_1042_">
			<g id="XMLID_1046_">
				<path id="XMLID_1047_" class="st0" d="M50.7,45.2c0,0,1.2-0.9,3-2.1c1.8-1.2,4.3-2.7,7.1-3.8c2.7-1.1,5.8-1.5,8.1-1.4
					c1.1,0,2.1,0.2,2.7,0.2c0.7,0.1,1,0.2,1,0.2s0.7,0.2,2,0.6c1.2,0.4,3,1.2,4.9,2.3c0.2,0.1,0.5,0.3,0.7,0.4l0.2,0.1l0.2,0.1
					l0.4,0.2c0.5,0.3,1,0.7,1.5,1c0.5,0.4,1,0.8,1.5,1.3c0.5,0.4,1,0.9,1.5,1.4c2,2,3.8,4.3,5.3,6.8c1.5,2.5,2.6,5.3,3.3,7.9
					c0.7,2.6,1.1,5.2,1.2,7.3c0.1,2.2-0.1,4-0.3,5.2c-0.2,1.2-0.3,2-0.3,2s0.1-0.7,0.2-2c0.1-1.3,0.2-3.1,0-5.2
					c-0.2-2.1-0.7-4.6-1.5-7.2c-0.8-2.5-2.1-5.1-3.6-7.5c-1.5-2.4-3.4-4.5-5.3-6.3c-0.5-0.4-1-0.9-1.5-1.2c-0.5-0.4-1-0.7-1.5-1.1
					c-0.5-0.3-1-0.7-1.5-1l-0.4-0.2l-0.1-0.1l-0.2-0.1c-0.2-0.1-0.5-0.3-0.7-0.4c-1.9-1-3.5-1.6-4.6-1.9c-1.2-0.3-1.8-0.5-1.8-0.5
					s-0.3-0.1-0.9-0.2c-0.6-0.1-1.4-0.3-2.4-0.5c-2-0.3-4.8-0.2-7.6,0.6c-2.7,0.7-5.3,2-7.2,3C51.9,44.5,50.7,45.2,50.7,45.2z"/>
			</g>
		</g>
	</g>
	<g id="XMLID_1024_">
		<g id="XMLID_1034_">
			<g id="XMLID_1038_">
				<path id="XMLID_1039_" class="st0" d="M47.4,21.2c0,0,0.6,0.1,1.5,0.2c0.9,0.1,2.1,0.2,3.3,0.2c1.2,0,2.4-0.1,3.3-0.3
					c0.9-0.1,1.5-0.2,1.5-0.2s1.2,0,3-0.2c1.8-0.2,4.1-0.7,6.4-1.6c2.3-0.8,4.4-2,5.9-3.1c0.4-0.3,0.7-0.5,1-0.7
					c0.3-0.2,0.5-0.4,0.7-0.6c0.4-0.3,0.7-0.5,0.7-0.5s-0.2,0.2-0.6,0.6c-0.2,0.2-0.4,0.4-0.7,0.7c-0.3,0.3-0.6,0.5-0.9,0.8
					c-1.4,1.2-3.4,2.7-5.7,3.8c-2.2,1.2-4.6,2-6.5,2.4c-1.9,0.4-3.1,0.6-3.1,0.6s-0.6,0-1.6-0.1c-1-0.1-2.2-0.3-3.5-0.5
					c-1.2-0.3-2.5-0.6-3.3-0.9C48,21.4,47.4,21.2,47.4,21.2z"/>
			</g>
		</g>
	</g>
	<g id="XMLID_1016_">
		<g id="XMLID_1026_">
			<g id="XMLID_1030_">
				<path id="XMLID_1031_" class="st0" d="M53.9,27.2c0,0,0.4,0.1,1,0.2c0.6,0.1,1.4,0.2,2.1,0.2c0.8,0,1.5-0.1,2.1-0.2
					c0.6-0.1,0.9-0.2,0.9-0.2s0.7,0.1,1.8,0c1.1-0.1,2.6-0.4,4-1c1.4-0.6,2.7-1.4,3.6-2.2c0.2-0.2,0.4-0.4,0.6-0.5
					c0.2-0.2,0.3-0.3,0.4-0.4c0.2-0.3,0.4-0.4,0.4-0.4s-0.1,0.2-0.3,0.5c-0.1,0.1-0.2,0.3-0.3,0.5c-0.2,0.2-0.3,0.4-0.5,0.6
					c-0.8,0.9-2,2.1-3.4,2.9c-1.4,0.9-3,1.5-4.2,1.8c-1.2,0.3-2.1,0.4-2.1,0.4s-0.4,0-1.1-0.2c-0.6-0.1-1.5-0.3-2.2-0.6
					c-0.8-0.3-1.5-0.7-2.1-0.9C54.3,27.4,53.9,27.2,53.9,27.2z"/>
			</g>
		</g>
	</g>
	<g id="XMLID_1008_">
		<g id="XMLID_1018_">
			<g id="XMLID_1022_">
				<path id="XMLID_1023_" class="st0" d="M84.6,8.3c0,0,1.9-0.1,4.8-0.2c2.9-0.1,6.8-0.1,10.7,0c1.9,0,3.9,0.2,5.7,0.3
					c1.8,0.1,3.5,0.2,5,0.4c2.9,0.2,4.8,0.5,4.8,0.5s3.8,0.6,9.5,1.9c5.7,1.3,13.2,3.3,20.5,5.9c7.3,2.5,14.4,5.6,19.7,8.2
					c1.3,0.6,2.5,1.2,3.6,1.7c1,0.6,1.9,1,2.7,1.4c1.5,0.8,2.3,1.2,2.3,1.2s-0.9-0.4-2.4-1.2c-0.8-0.4-1.7-0.8-2.7-1.3
					c-1.1-0.5-2.3-1-3.6-1.6c-5.3-2.3-12.5-5.1-19.9-7.4c-7.4-2.3-14.9-4-20.5-5.1c-5.7-1-9.5-1.5-9.5-1.5s-1.9-0.4-4.7-0.8
					c-1.4-0.2-3.1-0.5-4.9-0.7c-1.8-0.2-3.7-0.5-5.6-0.7c-3.8-0.4-7.7-0.7-10.6-0.8C86.5,8.3,84.6,8.3,84.6,8.3z"/>
			</g>
		</g>
	</g>
	<g id="XMLID_1000_">
		<g id="XMLID_1010_">
			<g id="XMLID_1014_">
				<path id="XMLID_1015_" class="st0" d="M110.7,54.8c0,0-0.3-1.7-0.8-4.1c-0.2-1.2-0.5-2.7-0.8-4.2c-0.3-1.5-0.6-3.2-0.7-5
					c-0.1-1.7,0.1-3.6,1-5.2c0.4-0.8,1-1.5,1.6-2c0.7-0.5,1.4-0.9,2-1.2c1.3-0.5,2.4-0.7,3.1-0.9c0.7-0.1,1.2-0.2,1.2-0.2
					s3.3-0.4,8.4-0.9c5-0.5,11.8-0.9,18.5-1.1c6.7-0.2,13.5-0.1,18.5,0.1c5,0.2,8.4,0.4,8.4,0.4s-3.4-0.1-8.4-0.1
					c-5,0-11.8,0.2-18.5,0.7c-6.7,0.5-13.4,1.2-18.4,1.9c-5,0.7-8.3,1.2-8.3,1.2s-0.4,0-1.1,0.1c-0.7,0.1-1.7,0.2-2.8,0.5
					c-0.5,0.2-1.1,0.4-1.6,0.7c-0.5,0.4-1,0.8-1.4,1.4c-0.8,1.2-1.1,2.7-1.2,4.4c-0.1,1.6,0.1,3.3,0.3,4.9c0.2,1.6,0.3,3,0.5,4.3
					C110.5,53.1,110.7,54.8,110.7,54.8z"/>
			</g>
		</g>
	</g>
	<g id="XMLID_992_">
		<g id="XMLID_1002_">
			<g id="XMLID_1006_">
				<path id="XMLID_1007_" class="st0" d="M108.7,52.2c0,0,0,0.4,0.1,1c0.1,0.6,0.2,1.5,0.5,2.5c0.5,2.1,1.6,4.7,2.5,7.3
					c1,2.6,1.9,5.4,2.6,7.4c0.7,2,1.1,3.4,1.1,3.4s0.6,2.8,1.4,7c0.8,4.2,1.7,9.8,2.4,15.4c0.7,5.6,1.3,11.2,1.8,15.5
					c0.4,4.2,0.7,7,0.7,7s-0.4-2.8-1.1-7c-0.7-4.2-1.5-9.8-2.6-15.3c-1-5.6-2.2-11.1-3.2-15.2c-1-4.1-1.7-6.8-1.7-6.8
					s-0.3-1.4-0.7-3.4c-0.4-2.1-1.1-4.8-1.8-7.5c-0.7-2.7-1.5-5.5-1.8-7.6c-0.2-1.1-0.2-1.9-0.2-2.6
					C108.7,52.6,108.7,52.2,108.7,52.2z"/>
			</g>
		</g>
	</g>
	<g id="XMLID_984_">
		<g id="XMLID_994_">
			<g id="XMLID_998_">
				<path id="XMLID_999_" class="st0" d="M94.1,61.2c0,0,0.5,1.9,1.3,4.8c0.7,2.9,1.7,6.7,2.6,10.5c0.9,3.8,1.8,7.7,2.4,10.6
					c0.6,2.9,1,4.8,1,4.8s0.6,3.9,1.4,9.7c0.8,5.9,1.7,13.7,2.3,21.5c0.7,7.8,1.2,15.7,1.4,21.6c0.1,2.9,0.2,5.4,0.3,7.1
					c0.1,1.7,0.1,2.7,0.1,2.7s-0.1-1-0.2-2.7c-0.1-1.7-0.3-4.2-0.5-7.1c-0.5-5.9-1.2-13.7-2.2-21.5c-1-7.8-2.1-15.6-3.1-21.4
					c-1-5.8-1.7-9.7-1.7-9.7s-0.3-1.9-0.7-4.9c-0.4-2.9-1-6.8-1.6-10.7c-0.6-3.9-1.3-7.7-1.8-10.6C94.4,63.1,94.1,61.2,94.1,61.2z"
					/>
			</g>
		</g>
	</g>
	<g id="XMLID_976_">
		<g id="XMLID_986_">
			<g id="XMLID_990_">
				<polygon id="XMLID_991_" class="st0" points="83.5,235.7 94.7,197.2 120.3,121.2 96.9,197.9 				"/>
			</g>
		</g>
	</g>
	<g id="XMLID_968_">
		<g id="XMLID_978_">
			<g id="XMLID_982_">
				<path id="XMLID_983_" class="st0" d="M120.2,120c0,0,0.7-0.1,2-0.1c1.3,0,3.1,0,5.3,0.4c2.2,0.3,4.7,1,7.2,2.1
					c1.3,0.5,2.6,1.2,3.6,2.5c1,1.3,1.2,3,1.1,4.5c-0.1,1.5-0.5,3-0.8,4.4c-0.3,1.4-0.7,2.8-1,4.1c-0.7,2.7-1.3,5.1-1.8,7.3
					c-1.1,4.2-1.8,7.1-1.8,7.1s-6.6,22.4-13.4,44.8c-6.8,22.4-13.8,44.6-13.8,44.6s6.5-22.4,12.7-44.9c6.3-22.5,12.3-45.1,12.3-45.1
					s0.9-2.8,2.1-7c0.6-2.1,1.4-4.5,2.2-7.2c0.4-1.3,0.8-2.7,1.2-4c0.4-1.4,0.8-2.7,1-4.1c0.2-1.4,0-2.8-0.7-3.8
					c-0.7-1.1-2-1.8-3.2-2.4c-2.4-1.2-4.9-2-7-2.4c-2.1-0.5-4-0.6-5.2-0.6C120.9,120,120.2,120,120.2,120z"/>
			</g>
		</g>
	</g>
	<g id="XMLID_960_">
		<g id="XMLID_970_">
			<g id="XMLID_974_">
				<path id="XMLID_975_" class="st0" d="M126.5,176.1c0.5-1.1,1.4-2.1,2.6-2.6l0.1-0.1l0.1,0.1c1.9,2.9,2.9,6.4,3.8,9.7l2.9,9.9
					l10.3,47.5l-12.5-47l-1.9-10.1c-0.6-3.4-1.3-6.8-2.8-9.8l0.2,0.1C128.1,174.2,127.1,175,126.5,176.1z"/>
			</g>
		</g>
	</g>
	<g id="XMLID_952_">
		<g id="XMLID_962_">
			<g id="XMLID_966_">
				<polygon id="XMLID_967_" class="st0" points="109.3,228.7 112,232.5 114.1,241.4 109.8,233.3 				"/>
			</g>
		</g>
	</g>
	<g id="XMLID_944_">
		<g id="XMLID_954_">
			<g id="XMLID_958_">
				<path id="XMLID_959_" class="st0" d="M139,207.6c0,0-0.2,0.2,0.1,0.4c0.1,0.1,0.3,0.2,0.4,0.2c0.2,0,0.3-0.2,0.4-0.4
					c0.1-0.5,0.1-1.1,0.1-1.8c0-0.7,0-1.5,0-2.4c0-3.5-0.1-8.2-0.5-12.9c-0.1-1.2-0.2-2.3-0.3-3.5c-0.1-0.6-0.1-1.1-0.2-1.7
					c0-0.3-0.1-0.6-0.1-0.8c0-0.3-0.1-0.6,0-1c0-0.4,0.1-0.8,0.5-1.2c0.3-0.4,0.9-0.6,1.2-0.6c0.4,0,0.6,0,0.9,0c0.3,0,0.5,0,0.8,0
					c1,0,2,0,2.8,0c3.5,0.1,5.9,0.1,5.9,0.1l19.4,1.2l0.6,0l0.2,0.6c4.9,18.1,7.6,36.6,8.2,55.3c-1.1-18.6-4.4-37-9.8-54.8l0.8,0.6
					l-19.4-0.6c0,0-2.3-0.2-5.9-0.4c-0.9-0.1-1.8-0.1-2.8-0.2c-0.3,0-0.5,0-0.8-0.1c-0.3,0-0.5,0-0.7,0c-0.2,0-0.2,0-0.2,0
					c0,0-0.1,0.1-0.1,0.3c0,0.2,0,0.4,0,0.7c0,0.3,0,0.6,0,0.8c0,0.6,0,1.1,0.1,1.7c0,1.2,0.1,2.3,0.1,3.5c0.1,4.7-0.1,9.4-0.3,13
					c-0.1,0.9-0.1,1.7-0.1,2.4c-0.1,0.7,0,1.3-0.2,1.9c-0.1,0.2-0.3,0.5-0.5,0.5c-0.2,0-0.4-0.1-0.5-0.2
					C138.8,207.7,139,207.6,139,207.6z"/>
			</g>
		</g>
	</g>
	<g id="XMLID_936_">
		<g id="XMLID_946_">
			<g id="XMLID_950_">
				<polygon id="XMLID_951_" class="st0" points="125.4,176.7 126.7,174.9 130.6,174.4 127.6,177 				"/>
			</g>
		</g>
	</g>
	<g id="XMLID_928_">
		<g id="XMLID_938_">
			<g id="XMLID_942_">
				<path id="XMLID_943_" class="st0" d="M94.8,210.2c0,0,1-0.2,2.1-0.2c1.1,0,2.2,0.1,2.2,0.1s0.5,0.2,1.2,0.7
					c0.7,0.4,1.5,1.1,2.3,1.8c1.6,1.4,2.6,3.2,2.6,3.2s-1.5-1.4-3.3-2.2c-0.9-0.4-1.8-0.8-2.4-1c-0.7-0.2-1.1-0.3-1.1-0.3
					s-0.8-0.6-1.6-1.1C95.8,210.5,94.8,210.2,94.8,210.2z"/>
			</g>
		</g>
	</g>
	<g id="XMLID_920_">
		<g id="XMLID_930_">
			<g id="XMLID_934_">
				<path id="XMLID_935_" class="st0" d="M106.1,215.8c0,0,0.4-2.4,0.7-4.9c0.3-2.4,0.7-4.9,0.7-4.9s1.4-4.7,2.7-9.4
					c1.3-4.7,2.4-9.5,2.4-9.5s-0.6,4.9-1.3,9.8c-0.7,4.9-1.6,9.7-1.6,9.7s-0.9,2.3-1.8,4.6C107,213.5,106.1,215.8,106.1,215.8z"/>
			</g>
		</g>
	</g>
	<g id="XMLID_912_">
		<g id="XMLID_922_">
			<g id="XMLID_926_">
				<path id="XMLID_927_" class="st0" d="M124.9,135.4c0,0-1.4,1.9-2.6,3.8c-1.3,1.9-2.4,3.9-2.4,3.9s-0.7,0.9-1.8,2.2
					c-1.1,1.3-2.5,3.2-3.7,5.1c-2.6,3.8-4.8,7.9-4.8,7.9s1.6-4.3,3.8-8.5c1.1-2.1,2.2-4.1,3.2-5.6c0.9-1.5,1.6-2.5,1.6-2.5
					s1.6-1.7,3.4-3.3C123.1,136.9,124.9,135.4,124.9,135.4z"/>
			</g>
		</g>
	</g>
	<g id="XMLID_904_">
		<g id="XMLID_914_">
			<g id="XMLID_918_">
				<path id="XMLID_919_" class="st0" d="M125.3,146.1c0,0-0.9,2-1.8,4c-0.9,2-1.8,4-1.8,4s-2.6,3.6-5.3,7c-2.7,3.5-5.5,6.9-5.5,6.9
					s2.3-3.7,4.5-7.5c2.2-3.8,4.3-7.6,4.3-7.6s1.4-1.7,2.8-3.4C123.9,147.8,125.3,146.1,125.3,146.1z"/>
			</g>
		</g>
	</g>
	<g id="XMLID_896_">
		<g id="XMLID_906_">
			<g id="XMLID_910_">
				<polygon id="XMLID_911_" class="st0" points="114,169.2 111.8,175.5 104.4,186.4 109.8,174.4 				"/>
			</g>
		</g>
	</g>
	<g id="XMLID_888_">
		<g id="XMLID_898_">
			<g id="XMLID_902_">
				<polygon id="XMLID_903_" class="st0" points="107.5,196 107.3,200.2 103.5,207.5 105.1,199.5 				"/>
			</g>
		</g>
	</g>
	<g id="XMLID_880_">
		<g id="XMLID_890_">
			<g id="XMLID_894_">
				<path id="XMLID_895_" class="st0" d="M143.9,182.6c0,0,0.1-0.5,0.2-1.3c0.1-0.8,0.2-1.9,0.3-2.9c0.1-1.1,0.1-2.1,0-2.9
					c0-0.8-0.1-1.3-0.1-1.3s0.1-1,0.2-2.6c0-1.6,0-3.7-0.4-5.8c-0.3-2.1-0.9-4.2-1.5-5.7c-0.3-0.8-0.5-1.4-0.7-1.8
					c-0.2-0.4-0.3-0.7-0.3-0.7s0.1,0.2,0.4,0.6c0.3,0.4,0.6,1,1,1.7c0.8,1.4,1.6,3.5,2.2,5.6c0.6,2.1,1,4.3,1.2,6
					c0.2,1.7,0.2,2.8,0.2,2.8s-0.1,0.6-0.3,1.4c-0.2,0.8-0.5,1.9-0.8,3c-0.3,1.1-0.8,2.1-1.1,2.8
					C144.2,182.1,143.9,182.6,143.9,182.6z"/>
			</g>
		</g>
	</g>
	<g id="XMLID_872_">
		<g id="XMLID_882_">
			<g id="XMLID_886_">
				<path id="XMLID_887_" class="st0" d="M140.3,151.9c0,0-0.1,0-0.3,0c-0.2,0-0.4-0.2-0.5-0.5c-0.1-0.3-0.1-0.8,0.2-1.1
					c0.3-0.4,0.8-0.6,1.3-0.7c2.1-0.4,4.9-0.9,7.8-1.3c2.9-0.3,5.7-0.5,7.9-0.6c2.2-0.1,3.6,0,3.6,0c3.5,0.3,7,0.8,10.4,1.5l1,0.2
					l-0.3,0.9c-1.7,5.6-3.3,11.2-4,17.1c-0.7,5.8-0.3,11.8,2.2,17.2c-2.8-5.2-3.5-11.4-3-17.3c0.4-5.9,1.8-11.7,3.2-17.4l0.7,1.1
					c-3.4-0.5-6.8-0.8-10.2-1c0,0-1.4-0.2-3.5-0.3c-2.1-0.2-4.9-0.3-7.8-0.2c-2.8,0-5.7,0.2-7.8,0.5c-0.5,0.1-1,0.2-1.3,0.5
					c-0.3,0.3-0.3,0.7-0.2,1c0.1,0.3,0.3,0.5,0.4,0.5C140.2,152,140.3,151.9,140.3,151.9z"/>
			</g>
		</g>
	</g>
	<g id="XMLID_864_">
		<g id="XMLID_874_">
			<g id="XMLID_878_">
				<path id="XMLID_879_" class="st0" d="M150.7,183.9c0,0,0.7,4.5,1.4,9c0.6,4.5,1.3,9,1.3,9s0.4,9.1,0.5,18.2
					c0.1,9.1,0,18.1,0,18.1s-0.4-9.1-1.1-18.1c-0.7-9-1.6-18-1.6-18s-0.1-4.5-0.1-9.1C150.8,188.5,150.7,183.9,150.7,183.9z"/>
			</g>
		</g>
	</g>
	<g id="XMLID_856_">
		<g id="XMLID_866_">
			<g id="XMLID_870_">
				<polygon id="XMLID_871_" class="st0" points="161.7,182 164.4,197.8 166.6,229.9 162.2,198.1 				"/>
			</g>
		</g>
	</g>
	<g id="XMLID_848_">
		<g id="XMLID_858_">
			<g id="XMLID_862_">
				<path id="XMLID_863_" class="st0" d="M144.9,77.2c0,0,0.3-2.7,0.6-5.3c0.1-1.3,0.3-2.6,0.3-3.6c0.1-1,0.1-1.6,0.1-1.6
					s0.3-1.3,0.6-3.2c0.3-1.9,0.7-4.5,0.7-7.2c0.1-2.6-0.2-5.3-0.6-7.2c-0.1-0.5-0.2-0.9-0.3-1.3c-0.1-0.4-0.2-0.7-0.3-1
					c-0.2-0.6-0.3-0.9-0.3-0.9s0.1,0.3,0.3,0.8c0.1,0.3,0.2,0.6,0.4,1c0.1,0.4,0.3,0.8,0.4,1.3c0.6,1.9,1.2,4.6,1.4,7.2
					c0.2,2.7,0.2,5.4,0.1,7.4c-0.1,2-0.3,3.4-0.3,3.4s-0.2,0.7-0.5,1.6c-0.3,1-0.7,2.3-1.1,3.5C145.8,74.7,144.9,77.2,144.9,77.2z"
					/>
			</g>
		</g>
	</g>
	<g id="XMLID_840_">
		<g id="XMLID_850_">
			<g id="XMLID_854_">
				<path id="XMLID_855_" class="st0" d="M139.6,45.1c0,0,0.7-0.1,1.4-0.3c0.7-0.2,1.2-0.5,1.2-0.5s1.2,0.3,2.5,0.2
					c1.3,0,2.6-0.4,2.6-0.4s-1,0.9-2.3,1.5c-0.6,0.3-1.3,0.6-1.8,0.7c-0.5,0.2-0.9,0.2-0.9,0.2s-0.7-0.3-1.4-0.6
					C140.1,45.5,139.6,45.1,139.6,45.1z"/>
			</g>
		</g>
	</g>
	<g id="XMLID_832_">
		<g id="XMLID_842_">
			<g id="XMLID_846_">
				<polygon id="XMLID_847_" class="st0" points="138.9,50.3 140,55.6 138.9,66.3 137.8,55.6 				"/>
			</g>
		</g>
	</g>
	<g id="XMLID_824_">
		<g id="XMLID_834_">
			<g id="XMLID_838_">
				<path id="XMLID_839_" class="st0" d="M136.7,69.6c0,0,2.1,6.3,3.9,12.6c0.9,3.2,1.8,6.4,2.4,8.8c0.6,2.4,1,4,1,4
					s0.6,3.3,1.4,8.1c0.8,4.9,1.7,11.4,2.5,18c0.7,6.6,1.3,13.2,1.6,18.1c0.2,2.5,0.3,4.5,0.3,6c0.1,1.4,0.1,2.3,0.1,2.3
					s-0.1-0.8-0.2-2.3c-0.1-1.4-0.3-3.5-0.6-5.9c-0.5-4.9-1.3-11.5-2.3-18c-1-6.5-2.2-13-3.2-17.8c-1-4.8-1.8-8-1.8-8
					s-0.3-1.6-0.7-4.1c-0.4-2.4-1-5.7-1.7-8.9C138.3,76,136.7,69.6,136.7,69.6z"/>
			</g>
		</g>
	</g>
	<g id="XMLID_816_">
		<g id="XMLID_826_">
			<g id="XMLID_830_">
				<path id="XMLID_831_" class="st0" d="M145.7,47.2c0,0,0.9,1.6,1.7,3.2c0.8,1.6,1.6,3.3,1.6,3.3s0.7,3.6,1.2,7.2
					c0.5,3.6,0.7,7.2,0.7,7.2s-0.8-3.5-1.8-7c-1-3.4-2.3-6.8-2.3-6.8s-0.2-1.8-0.5-3.6C146,49,145.7,47.2,145.7,47.2z"/>
			</g>
		</g>
	</g>
	<g id="XMLID_808_">
		<g id="XMLID_818_">
			<g id="XMLID_822_">
				<path id="XMLID_823_" class="st0" d="M150.9,68.9c0,0,0.2,6.5,0.6,13c0.4,6.5,0.9,13,0.9,13s0.1,3.3,0.1,8.1
					c0.1,4.9,0.4,11.4,0.7,17.9c0.7,13,2,26,2,26s-1.9-12.9-3.1-25.9c-0.6-6.5-1.2-13-1.5-17.9c-0.3-4.9-0.5-8.1-0.5-8.1
					s0.1-6.5,0.3-13.1C150.6,75.4,150.9,68.9,150.9,68.9z"/>
			</g>
		</g>
	</g>
	<g id="XMLID_800_">
		<g id="XMLID_810_">
			<g id="XMLID_814_">
				<path id="XMLID_815_" class="st0" d="M172.2,52.3c0,0,0,0.2-0.1,0.6c0,0.4,0,0.9,0,1.4c0.1,1.2,0.7,2.7,1.6,3.9
					c0.9,1.2,2.2,2.1,3.1,2.5c0.5,0.2,0.9,0.3,1.2,0.4c0.3,0.1,0.5,0.1,0.5,0.1s0.1,0,0.3,0.1c0.2,0.1,0.5,0.2,0.9,0.4
					c0.4,0.2,0.9,0.6,1.3,1.1c0.4,0.6,0.6,1.2,0.8,1.9c0.1,0.7,0.2,1.4,0.2,2.1c0.1,0.7,0.1,1.4,0.2,2.2c0.1,1.5,0.2,3.1,0.4,4.8
					c0.5,6.5,1,13,1,13s-1-6.4-2.1-12.8c-0.3-1.6-0.5-3.2-0.8-4.7c-0.1-0.8-0.2-1.5-0.4-2.2c-0.1-0.7-0.2-1.3-0.4-1.8
					c-0.1-0.5-0.3-0.9-0.5-1.1c-0.2-0.2-0.4-0.3-0.7-0.5c-0.2-0.1-0.5-0.2-0.6-0.2c-0.2,0-0.3-0.1-0.3-0.1s-0.2-0.1-0.5-0.2
					c-0.3-0.1-0.9-0.4-1.5-0.8c-1.2-0.7-2.5-2-3.2-3.6c-0.8-1.5-1.1-3.3-1-4.5c0-0.6,0.1-1.1,0.2-1.5
					C172.2,52.4,172.2,52.3,172.2,52.3z"/>
			</g>
		</g>
	</g>
	<g id="XMLID_792_">
		<g id="XMLID_802_">
			<g id="XMLID_806_">
				<path id="XMLID_807_" class="st0" d="M182.9,84.4c0,0,0.2,0.1,0.6,0.2c0.4,0.1,0.9,0.3,1.5,0.5c0.6,0.1,1.4,0.2,2.2,0.1
					c0.4,0,0.8-0.1,1.1-0.2c0.3-0.1,0.5-0.3,0.5-0.5c0-0.3,0-0.6-0.1-1.1c-0.1-0.4-0.1-0.8-0.2-1.3c-0.1-0.8-0.3-1.6-0.4-2.2
					c-0.2-1.3-0.4-2.2-0.4-2.2L187,64.7l0-0.5l0.5-0.1c4.6-0.9,7.5-7.2,4.8-11.6c1.5,2,1.7,4.9,0.8,7.3c-0.8,2.4-2.7,4.7-5.4,5.5
					l0.5-0.6l1.7,13c0,0,0,0.9,0,2.2c0,0.7,0,1.4,0,2.3c0,0.4,0,0.8,0,1.3c0,0.4,0,0.9-0.2,1.5c-0.2,0.6-0.9,1-1.4,1.1
					c-0.5,0.1-1,0.1-1.4,0c-0.9-0.1-1.6-0.3-2.3-0.5c-0.6-0.2-1.1-0.5-1.5-0.7C183,84.6,182.9,84.4,182.9,84.4z"/>
			</g>
		</g>
	</g>
	<g id="XMLID_784_">
		<g id="XMLID_794_">
			<g id="XMLID_798_">
				<path id="XMLID_799_" class="st0" d="M173.4,50.7l8.1-1.8c0,0,4.1,0,8.2-0.1c2,0,4.1-0.1,5.7,0.3c0.8,0.2,1.4,0.5,1.8,0.7
					c0.2,0.1,0.3,0.2,0.4,0.3c0.1,0.1,0.1,0.1,0.1,0.1s-0.1,0-0.2-0.1c-0.1-0.1-0.3-0.1-0.5-0.2c-0.4-0.2-1-0.4-1.8-0.4
					c-1.5-0.2-3.5,0.2-5.5,0.5c-4.1,0.6-8.1,1.2-8.1,1.2L173.4,50.7z"/>
			</g>
		</g>
	</g>
	<g id="XMLID_776_">
		<g id="XMLID_786_">
			<g id="XMLID_790_">
				<path id="XMLID_791_" class="st0" d="M170.9,56.7c0,0,0.5,11.4,1.1,22.8c0.5,11.4,1,22.8,1,22.8s0.1,22.8-0.1,45.6
					c-0.1,22.8-0.5,45.6-0.5,45.6s-0.2-22.8-0.6-45.6c-0.4-22.8-1.1-45.6-1.1-45.6s0.1-11.4,0.2-22.8
					C170.8,68.1,170.9,56.7,170.9,56.7z"/>
			</g>
		</g>
	</g>
	<g id="XMLID_768_">
		<g id="XMLID_778_">
			<g id="XMLID_782_">
				<path id="XMLID_783_" class="st0" d="M198.3,51.1c0,0-0.5,0.1-1,0.8c-0.5,0.7-0.6,1.9-0.5,3.3c0.3,2.9,0.6,6.7,1,10.6
					c0.8,7.7,1.6,15.4,1.6,15.4s0.2,3.9,0.4,9.7c0.2,5.8,0.5,13.5,0.6,21.3c0.1,7.7,0,15.5-0.3,21.3c-0.1,2.9-0.3,5.3-0.4,7
					c-0.1,1.7-0.2,2.6-0.2,2.6s0-1,0.1-2.7c0.1-1.7,0.1-4.1,0.2-7c0.1-5.8-0.1-13.5-0.5-21.2c-0.4-7.7-0.9-15.4-1.4-21.2
					c-0.5-5.8-0.8-9.6-0.8-9.6s-0.2-7.7-0.4-15.5c-0.1-3.9-0.2-7.7-0.2-10.6c0-1.5,0.2-2.7,0.8-3.4
					C197.8,51.2,198.3,51.2,198.3,51.1z"/>
			</g>
		</g>
	</g>
	<g id="XMLID_760_">
		<g id="XMLID_770_">
			<g id="XMLID_774_">
				<path id="XMLID_775_" class="st0" d="M199.7,156.4c0,0,0.6,7.4,1.1,14.8c0.5,7.4,0.9,14.8,0.9,14.8s0,3.7-0.1,9.3
					c-0.1,5.6-0.2,13-0.4,20.4c-0.4,14.8-1.3,29.6-1.3,29.6s0.3-14.8,0.1-29.6c-0.1-7.4-0.2-14.8-0.4-20.4c-0.2-5.5-0.3-9.2-0.3-9.2
					s0.2-7.4,0.2-14.8C199.7,163.8,199.7,156.4,199.7,156.4z"/>
			</g>
		</g>
	</g>
	<g id="XMLID_752_">
		<g id="XMLID_762_">
			<g id="XMLID_766_">
				<path id="XMLID_767_" class="st0" d="M176,106.6c0,0,1-0.5,2-0.9c1-0.4,2.1-0.8,2.1-0.8s2.2,0.1,4.4,0.3
					c2.2,0.2,4.3,0.6,4.3,0.6s-2.2,0.2-4.3,0.5c-2.1,0.3-4.2,0.8-4.2,0.8s-1.1-0.2-2.2-0.3C177.1,106.7,176,106.6,176,106.6z"/>
			</g>
		</g>
	</g>
	<g id="XMLID_744_">
		<g id="XMLID_754_">
			<g id="XMLID_758_">
				<polygon id="XMLID_759_" class="st0" points="175.9,132.4 180.7,131.5 190,133.2 180.6,133.8 				"/>
			</g>
		</g>
	</g>
	<g id="XMLID_736_">
		<g id="XMLID_746_">
			<g id="XMLID_750_">
				<path id="XMLID_751_" class="st0" d="M178.5,157.7c0,0,1.2-0.5,2.4-0.9c1.2-0.4,2.4-0.8,2.4-0.8s2.5,0.1,5,0.4
					c2.5,0.3,4.9,0.8,4.9,0.8s-2.5,0.1-4.9,0.4c-2.4,0.3-4.8,0.8-4.8,0.8s-1.2-0.2-2.5-0.3C179.8,157.8,178.5,157.7,178.5,157.7z"/>
			</g>
		</g>
	</g>
	<g id="XMLID_728_">
		<g id="XMLID_738_">
			<g id="XMLID_742_">
				<polygon id="XMLID_743_" class="st0" points="179.2,184.5 183,183.4 190.7,184.5 183,185.7 				"/>
			</g>
		</g>
	</g>
	<g id="XMLID_720_">
		<g id="XMLID_730_">
			<g id="XMLID_734_">
				<path id="XMLID_735_" class="st0" d="M179.7,209.8c0,0,0.6-0.4,1.3-0.8c0.7-0.4,1.4-0.7,1.4-0.7s1.5,0.2,2.9,0.5
					c1.4,0.3,2.8,0.7,2.8,0.7s-1.4,0.1-2.8,0.4c-1.4,0.3-2.7,0.7-2.7,0.7s-0.7-0.2-1.4-0.4C180.5,210,179.7,209.8,179.7,209.8z"/>
			</g>
		</g>
	</g>
	<g id="XMLID_712_">
		<g id="XMLID_722_">
			<g id="XMLID_726_">
				<polygon id="XMLID_727_" class="st0" points="182.4,236.9 183.4,235.8 185.5,236.9 183.4,238.1 				"/>
			</g>
		</g>
	</g>
	<g id="XMLID_704_">
		<g id="XMLID_714_">
			<g id="XMLID_718_">
				<polygon id="XMLID_719_" class="st0" points="191.3,84.8 192.2,83.7 193.9,84.8 192.2,86 				"/>
			</g>
		</g>
	</g>
	<g id="XMLID_696_">
		<g id="XMLID_706_">
			<g id="XMLID_710_">
				<path id="XMLID_711_" class="st0" d="M189.4,93.2c0,0,0.3-0.4,0.7-0.7c0.4-0.3,0.8-0.6,0.8-0.6s0.9,0.3,1.6,0.8
					c0.8,0.5,1.3,1.1,1.3,1.1s-0.8-0.1-1.6,0c-0.8,0.1-1.4,0.4-1.4,0.4s-0.3-0.3-0.7-0.5C189.8,93.4,189.4,93.2,189.4,93.2z"/>
			</g>
		</g>
	</g>
	<g id="XMLID_688_">
		<g id="XMLID_698_">
			<g id="XMLID_702_">
				<path id="XMLID_703_" class="st0" d="M190,100.2c0,0,0.2-0.4,0.5-0.7c0.3-0.3,0.7-0.6,0.7-0.6s0.7,0.3,1.3,0.8
					c0.5,0.5,0.8,1,0.8,1s-0.6-0.1-1.2,0c-0.6,0.1-1,0.4-1,0.4s-0.2-0.3-0.5-0.5C190.4,100.4,190,100.2,190,100.2z"/>
			</g>
		</g>
	</g>
	<g id="XMLID_680_">
		<g id="XMLID_690_">
			<g id="XMLID_694_">
				<polygon id="XMLID_695_" class="st0" points="188.7,112.8 189,111.5 190.6,112.2 189.7,113.7 				"/>
			</g>
		</g>
	</g>
	<g id="XMLID_672_">
		<g id="XMLID_682_">
			<g id="XMLID_686_">
				<path id="XMLID_687_" class="st0" d="M190,117.4c0,0,0.4-0.1,0.8-0.3c0.4-0.2,0.7-0.4,0.7-0.4s0.4,0.4,1,0.7
					c0.6,0.3,1.3,0.5,1.3,0.5s-0.6,0.4-1.3,0.6c-0.7,0.3-1.6,0.3-1.6,0.3s-0.3-0.4-0.5-0.8C190.2,117.8,190,117.4,190,117.4z"/>
			</g>
		</g>
	</g>
	<g id="XMLID_664_">
		<g id="XMLID_674_">
			<g id="XMLID_678_">
				<polygon id="XMLID_679_" class="st0" points="190.7,125.1 191.5,124 193.2,125.1 191.5,126.2 				"/>
			</g>
		</g>
	</g>
	<g id="XMLID_656_">
		<g id="XMLID_666_">
			<g id="XMLID_670_">
				<polygon id="XMLID_671_" class="st0" points="188.1,140.9 189.4,140 191.3,141.6 189,142.3 				"/>
			</g>
		</g>
	</g>
	<g id="XMLID_648_">
		<g id="XMLID_658_">
			<g id="XMLID_662_">
				<polygon id="XMLID_663_" class="st0" points="189.4,148.1 190,147 191.3,148.1 190,149.2 				"/>
			</g>
		</g>
	</g>
	<g id="XMLID_640_">
		<g id="XMLID_650_">
			<g id="XMLID_654_">
				<path id="XMLID_655_" class="st0" d="M188,152.1c0,0,0.6-0.1,1.1-0.2c0.5-0.1,1.1-0.3,1.1-0.3s0.8,0.5,1.7,0.9
					c0.9,0.4,1.9,0.7,1.9,0.7s-1,0.3-2.1,0.5c-1.1,0.2-2.2,0.2-2.2,0.2s-0.4-0.4-0.8-0.8C188.4,152.6,188,152.1,188,152.1z"/>
			</g>
		</g>
	</g>
	<g id="XMLID_632_">
		<g id="XMLID_642_">
			<g id="XMLID_646_">
				<polygon id="XMLID_647_" class="st0" points="189.4,165.4 191.1,164.2 194.5,165.4 191.1,166.5 				"/>
			</g>
		</g>
	</g>
	<g id="XMLID_624_">
		<g id="XMLID_634_">
			<g id="XMLID_638_">
				<path id="XMLID_639_" class="st0" d="M190,173c0,0,0.1-0.4,0.2-0.8c0.2-0.4,0.4-0.8,0.4-0.8s0.8,0,1.4,0.3
					c0.7,0.2,1.1,0.7,1.1,0.7s-0.6,0.1-1.1,0.5c-0.5,0.3-0.8,0.7-0.8,0.7s-0.3-0.2-0.6-0.4C190.4,173.1,190,173,190,173z"/>
			</g>
		</g>
	</g>
	<g id="XMLID_616_">
		<g id="XMLID_626_">
			<g id="XMLID_630_">
				<polygon id="XMLID_631_" class="st0" points="187.5,179.4 188.7,178.3 191.3,179.4 188.7,180.6 				"/>
			</g>
		</g>
	</g>
	<g id="XMLID_608_">
		<g id="XMLID_618_">
			<g id="XMLID_622_">
				<polygon id="XMLID_623_" class="st0" points="190,191.4 190.8,190.1 193.2,190.8 191.3,192.3 				"/>
			</g>
		</g>
	</g>
	<g id="XMLID_600_">
		<g id="XMLID_610_">
			<g id="XMLID_614_">
				<polygon id="XMLID_615_" class="st0" points="191.9,195.9 192.2,194.5 194.4,194.6 193.3,196.5 				"/>
			</g>
		</g>
	</g>
	<g id="XMLID_592_">
		<g id="XMLID_602_">
			<g id="XMLID_606_">
				<path id="XMLID_607_" class="st0" d="M190,203.6c0,0,0.1-0.4,0.4-0.8c0.2-0.4,0.6-0.8,0.6-0.8s0.9,0.1,1.6,0.4
					c0.7,0.3,1.3,0.7,1.3,0.7s-0.7,0.1-1.3,0.4c-0.6,0.3-1,0.7-1,0.7s-0.3-0.2-0.7-0.4C190.4,203.7,190,203.6,190,203.6z"/>
			</g>
		</g>
	</g>
	<g id="XMLID_584_">
		<g id="XMLID_594_">
			<g id="XMLID_598_">
				<path id="XMLID_599_" class="st0" d="M190.6,220.9c0,0,0-0.1-0.1-0.3c0-0.2,0-0.5,0-0.8c0.1-0.6,0.5-1.2,0.5-1.2
					s0.3-0.1,0.8-0.2c0.5-0.1,1.1,0,1.6,0.1c0.5,0.2,1,0.5,1.3,0.8c0.3,0.3,0.3,0.5,0.4,0.5c0,0-0.2-0.1-0.5-0.2
					c-0.3-0.1-0.8-0.1-1.1,0.1c-0.4,0.1-0.7,0.4-0.9,0.5c-0.2,0.2-0.3,0.3-0.3,0.3s-0.4-0.1-0.8,0c-0.2,0.1-0.4,0.1-0.6,0.3
					C190.7,220.9,190.6,220.9,190.6,220.9z"/>
			</g>
		</g>
	</g>
	<g id="XMLID_576_">
		<g id="XMLID_586_">
			<g id="XMLID_590_">
				<path id="XMLID_591_" class="st0" d="M192.5,223.5c0,0-0.1-0.4,0-0.8c0.1-0.4,0.3-0.8,0.3-0.8s0.2,0,0.5,0
					c0.3,0,0.6,0.1,0.9,0.3c0.3,0.1,0.5,0.3,0.7,0.5c0.2,0.2,0.2,0.3,0.2,0.3s-0.6,0.1-0.9,0.4c-0.4,0.3-0.5,0.7-0.5,0.7
					s-0.2-0.2-0.5-0.4C192.9,223.5,192.5,223.5,192.5,223.5z"/>
			</g>
		</g>
	</g>
	<g id="XMLID_568_">
		<g id="XMLID_578_">
			<g id="XMLID_582_">
				<path id="XMLID_583_" class="st0" d="M190,230.4c0,0,0.4-0.4,0.8-0.8c0.4-0.4,0.9-0.8,0.9-0.8s1.1,0.1,2.1,0.4
					c1,0.3,1.9,0.7,1.9,0.7s-1,0.1-1.9,0.4c-0.9,0.3-1.8,0.7-1.8,0.7s-0.5-0.2-1-0.4C190.5,230.5,190,230.4,190,230.4z"/>
			</g>
		</g>
	</g>
	<g id="XMLID_560_">
		<g id="XMLID_570_">
			<g id="XMLID_574_">
				<path id="XMLID_575_" class="st0" d="M323.5,176.2c0,0-0.1-3.4-0.2-8.5c-0.1-5.1-0.3-11.9-0.8-18.7c-0.5-6.8-1.3-13.5-2.2-18.5
					c-0.8-5-1.4-8.4-1.4-8.4s-0.2-1.7-0.5-4.7c-0.3-3-0.6-7.3-0.1-12.5c0.2-1.3,0.4-2.7,1.1-4.1c0.3-0.7,0.8-1.4,1.3-2
					c0.6-0.6,1.4-1.1,2.1-1.4c1.7-0.7,3.5-0.4,5,0.2c1.6,0.6,2.9,1.6,4.2,2.6l0.5,0.4c0.2,0.2,0.3,0.3,0.4,0.4l0.9,0.9l0.9,0.9
					l0.8,1c1.1,1.3,2.1,2.6,3.1,4c1.9,2.8,3.5,5.9,4.9,9c2.7,6.3,4.4,13,5.7,19.2c1.3,6.3,2.3,12.1,3.2,17.2
					c1.8,10.1,3.1,16.8,3.1,16.8s-1.4-6.7-3.4-16.7c-1-5-2.2-10.9-3.6-17.1c-1.5-6.2-3.3-12.8-6.1-18.9c-1.4-3.1-3-6-4.9-8.7
					c-1-1.3-2-2.6-3.1-3.8l-0.8-0.9l-0.9-0.9l-0.9-0.8l-0.4-0.4l-0.4-0.4c-1.2-1-2.5-1.8-3.8-2.3c-1.3-0.5-2.7-0.6-3.8-0.2
					c-2.4,0.9-3.1,3.7-3.3,6.1c-0.3,5,0.1,9.2,0.4,12.1c0.3,2.9,0.6,4.6,0.6,4.6s0.4,3.4,1,8.4c0.7,5.1,1.2,11.9,1.4,18.8
					c0.2,6.8,0.1,13.6,0,18.8C323.6,172.8,323.5,176.2,323.5,176.2z"/>
			</g>
		</g>
	</g>
	<g id="XMLID_552_">
		<g id="XMLID_562_">
			<g id="XMLID_566_">
				<path id="XMLID_567_" class="st0" d="M356.6,169.2c0,0,0.1,0.3,0.2,0.8c0.1,0.5,0.3,1.2,0.6,2c0.6,1.6,1.6,3.7,2.7,5.7
					c2.3,4.1,4.5,8.2,4.5,8.2s3.7,8.5,7.5,17.1c1.9,4.3,3.6,8.6,5.5,11.5c0.9,1.5,1.8,2.6,2.5,3.4c0.3,0.4,0.6,0.7,0.8,0.8
					c0.2,0.2,0.3,0.3,0.3,0.3s-0.1-0.1-0.3-0.3c-0.2-0.2-0.5-0.4-0.9-0.8c-0.7-0.7-1.7-1.8-2.7-3.2c-2.1-2.9-4.1-7.1-6.2-11.2
					c-4.2-8.3-8.5-16.6-8.5-16.6s-1.7-4.3-3.5-8.7c-0.9-2.2-1.7-4.4-2-6.1c-0.2-0.9-0.3-1.6-0.4-2.1
					C356.6,169.5,356.6,169.2,356.6,169.2z"/>
			</g>
		</g>
	</g>
	<g id="XMLID_544_">
		<g id="XMLID_554_">
			<g id="XMLID_558_">
				<path id="XMLID_559_" class="st0" d="M378.3,224.1c0,0,0.1,0.3,0.2,0.7c0.1,0.4,0.3,1,0.4,1.6c0.1,0.6,0.2,1.2,0.2,1.7
					c0,0.5,0,0.8,0,0.8s-0.2,0.6-0.6,1.4c-0.4,0.8-1.1,1.8-2,2.7c-0.8,0.9-1.8,1.6-2.5,2c-0.4,0.2-0.7,0.4-0.9,0.5
					c-0.2,0.1-0.4,0.2-0.4,0.2s0.1-0.1,0.3-0.2c0.2-0.1,0.5-0.4,0.8-0.7c0.6-0.6,1.3-1.4,1.8-2.4c0.5-0.9,0.9-1.9,1.1-2.7
					c0.2-0.8,0.2-1.3,0.2-1.3s0.5-0.9,0.9-2c0.2-0.5,0.3-1.1,0.4-1.5C378.3,224.4,378.3,224.1,378.3,224.1z"/>
			</g>
		</g>
	</g>
	<g id="XMLID_536_">
		<g id="XMLID_546_">
			<g id="XMLID_550_">
				<path id="XMLID_551_" class="st0" d="M294.5,102.4c0,0-0.3-0.9-0.9-2.4c-0.6-1.5-1.4-3.7-2.5-6.3c-2.2-5.1-5.6-11.8-9.8-17.9
					c-2.1-3.1-4.3-6-6.4-8.8c-2.1-2.8-4-5.5-5.6-7.9c-1.5-2.4-2.7-4.5-3.4-5.9c-0.8-1.5-1.2-2.3-1.2-2.3s-0.8-1.7-1.9-4.8
					c-0.3-0.8-0.6-1.6-0.9-2.6c-0.3-1-0.6-2-0.7-3.3c0-0.6,0-1.3,0.1-2c0.1-0.5,0.2-0.6,0.3-1l0.3-0.6c0.1-0.2,0.2-0.3,0.3-0.5
					c0.9-1.3,2.2-2.2,3.6-2.7c1.4-0.6,3-0.8,4.7-0.7c0.4,0,0.8,0.1,1.2,0.1c0.4,0.1,0.7,0.1,1.2,0.2c0.8,0.2,1.6,0.4,2.4,0.7
					c3.2,1.1,6.1,3.1,8.9,5.2c5.5,4.4,11.1,9.4,16.3,14.8c5.2,5.4,9.9,11.2,14,16.9c4.1,5.7,7.5,11.3,10.2,16.1
					c2.7,4.9,4.7,9.1,6,12.1c1.3,3,2,4.7,2,4.7s-0.8-1.7-2.1-4.7c-1.4-2.9-3.4-7.1-6.3-12c-2.8-4.8-6.3-10.3-10.5-15.9
					c-4.2-5.6-9-11.2-14.3-16.5c-5.2-5.3-10.9-10.1-16.4-14.3c-2.8-2.1-5.6-3.8-8.5-4.8c-0.7-0.2-1.5-0.5-2.2-0.6
					c-0.3-0.1-0.7-0.1-1.1-0.2c-0.3,0-0.7-0.1-1-0.1c-1.4,0-2.7,0.2-3.9,0.7c-1.2,0.5-2.1,1.2-2.7,2l-0.2,0.3l-0.1,0.3
					c-0.1,0.1-0.2,0.6-0.2,0.7c-0.1,0.5-0.1,1-0.1,1.5c0.1,1,0.4,1.9,0.7,2.9c0.3,0.9,0.6,1.8,0.9,2.5c1.1,3,1.9,4.7,1.9,4.7
					s0.4,0.8,1,2.3c0.7,1.5,1.7,3.5,3.1,5.9c1.4,2.4,3.2,5.1,5.2,7.9c2,2.9,4.1,5.9,6.1,9.1c3.9,6.4,7.1,13.2,9.2,18.4
					c1,2.6,1.8,4.8,2.3,6.4C294.3,101.5,294.5,102.4,294.5,102.4z"/>
			</g>
		</g>
	</g>
	<g id="XMLID_528_">
		<g id="XMLID_538_">
			<g id="XMLID_542_">
				<path id="XMLID_543_" class="st0" d="M259.8,51.3c0,0-1.9,0.3-3.7,0.8c-0.9,0.2-1.8,0.5-2.4,0.7c-0.6,0.2-1,0.4-1,0.4
					s-0.9,0.1-2.1,0.5c-0.6,0.2-1.3,0.5-2,1c-0.6,0.4-1.3,1-1.9,1.7c-1.1,1.4-1.7,3.2-1.6,4.5c0,0.3,0.1,0.7,0.1,0.9
					c0.1,0.3,0.1,0.5,0.2,0.7c0.2,0.4,0.3,0.6,0.3,0.6c0,0-0.7-0.7-0.9-2.2c-0.3-1.4,0-3.5,1.1-5.2c0.5-0.9,1.1-1.6,1.9-2.3
					c0.7-0.6,1.5-1.1,2.1-1.5c1.3-0.7,2.3-1,2.3-1s0.5-0.1,1.3-0.1c0.7,0,1.7,0,2.7,0C257.9,51,259.8,51.3,259.8,51.3z"/>
			</g>
		</g>
	</g>
	<g id="XMLID_520_">
		<g id="XMLID_530_">
			<g id="XMLID_534_">
				<path id="XMLID_535_" class="st0" d="M238.2,65.9c0,0-0.1-0.2-0.3-0.6c-0.2-0.4-0.5-0.9-0.7-1.6c-0.4-1.4-0.6-3.4-0.2-5.3
					c0.4-1.9,1.1-3.8,1.8-5.1c0.4-0.7,0.7-1.2,0.9-1.6c0.2-0.3,0.4-0.5,0.4-0.5s0.3-0.4,0.9-1c0.6-0.6,1.5-1.5,2.7-2.3
					c2.4-1.8,6.1-3.6,10.1-3.6c2,0,3.9,0.4,5.6,1.1c1.7,0.7,3.1,1.7,4.1,2.8c1,1,1.7,2.1,2,2.8c0.2,0.4,0.3,0.7,0.4,0.9
					c0.1,0.2,0.1,0.3,0.1,0.3s-0.1-0.1-0.1-0.3c-0.1-0.2-0.2-0.5-0.4-0.8c-0.4-0.7-1.1-1.7-2.2-2.6c-1-0.9-2.5-1.8-4.1-2.3
					c-1.6-0.6-3.5-0.8-5.3-0.7c-3.6,0.3-6.9,2.2-8.9,3.9c-1,0.9-1.8,1.7-2.3,2.3c-0.5,0.6-0.8,0.9-0.8,0.9s-0.2,0.2-0.4,0.5
					c-0.3,0.3-0.6,0.7-1,1.2c-0.8,1.1-1.8,2.6-2.4,4.4c-0.6,1.7-0.8,3.6-0.6,5c0.1,0.7,0.3,1.2,0.4,1.6
					C238.1,65.7,238.2,65.9,238.2,65.9z"/>
			</g>
		</g>
	</g>
	<g id="XMLID_512_">
		<g id="XMLID_522_">
			<g id="XMLID_526_">
				<path id="XMLID_527_" class="st0" d="M241.9,71.3c0,0,0.9,0.7,2.2,1.7c1.3,1,3,2.4,4.6,3.9c1.6,1.5,3.2,3,4.4,4.1
					c1.2,1.2,1.9,2,1.9,2s1.4,1.7,3.3,4.4c1.9,2.7,4.3,6.4,6.3,10.3c2.1,3.9,3.9,7.9,5.1,10.9c0.6,1.5,1.1,2.8,1.4,3.7
					c0.3,0.9,0.5,1.4,0.5,1.4s-0.2-0.5-0.6-1.4c-0.4-0.9-0.9-2.1-1.6-3.6c-1.4-3-3.4-6.8-5.7-10.5c-2.3-3.7-4.9-7.2-6.9-9.7
					c-2-2.5-3.5-4.1-3.5-4.1s-0.6-0.9-1.6-2.2c-1-1.3-2.3-3-3.8-4.6c-1.4-1.6-2.9-3.2-4.1-4.4C242.6,72.1,241.9,71.3,241.9,71.3z"/>
			</g>
		</g>
	</g>
	<g id="XMLID_504_">
		<g id="XMLID_514_">
			<g id="XMLID_518_">
				<polygon id="XMLID_519_" class="st0" points="271,61.3 279,72.5 291.9,96.8 277,73.7 				"/>
			</g>
		</g>
	</g>
	<g id="XMLID_496_">
		<g id="XMLID_506_">
			<g id="XMLID_510_">
				<path id="XMLID_511_" class="st0" d="M289.8,80.4c0,0,0.2-0.8,0.6-1.7c0.3-0.8,0.8-1.7,0.8-1.7s1.4-1.1,3-1.8
					c1.6-0.8,3.2-1.3,3.2-1.3s-1.4,1-2.6,2.2c-1.2,1.2-2.1,2.5-2.1,2.5s-0.8,0.4-1.5,0.8C290.5,79.9,289.8,80.4,289.8,80.4z"/>
			</g>
		</g>
	</g>
	<g id="XMLID_488_">
		<g id="XMLID_498_">
			<g id="XMLID_502_">
				<polygon id="XMLID_503_" class="st0" points="260.3,71.3 261.2,69.5 264.8,68.8 262.3,71.4 				"/>
			</g>
		</g>
	</g>
	<g id="XMLID_480_">
		<g id="XMLID_490_">
			<g id="XMLID_494_">
				<polygon id="XMLID_495_" class="st0" points="264.1,86 267.1,83.7 274.4,82.3 267.9,85.8 				"/>
			</g>
		</g>
	</g>
	<g id="XMLID_472_">
		<g id="XMLID_482_">
			<g id="XMLID_486_">
				<path id="XMLID_487_" class="st0" d="M264.2,97c0,0,1.1-0.2,2.1-0.5c1-0.3,2-0.7,2-0.7s0.5,0,1.3,0c0.8,0,1.8-0.1,2.8-0.3
					c2-0.3,4-1.1,4-1.1s-1.7,1.3-3.7,2.2c-1,0.5-2,0.9-2.8,1.1c-0.8,0.2-1.3,0.4-1.3,0.4s-1.1-0.1-2.2-0.4
					C265.2,97.4,264.2,97,264.2,97z"/>
			</g>
		</g>
	</g>
	<g id="XMLID_464_">
		<g id="XMLID_474_">
			<g id="XMLID_478_">
				<path id="XMLID_479_" class="st0" d="M230.8,92.4c0,0-0.3-0.1-0.8-0.3c-0.3-0.1-0.6-0.1-1-0.1c-0.4,0-0.8,0-1.3,0
					c-1.9,0.2-4.2,1.4-5.8,3.3c-0.8,0.9-1.4,2-1.8,3c-0.1,0.3-0.2,0.5-0.3,0.8c-0.1,0.3-0.1,0.5-0.2,0.8c-0.1,0.5-0.2,1-0.2,1.4
					c-0.1,0.9-0.1,1.7-0.1,2.2c0,0.5,0,0.8,0,0.8s0,0.2,0,0.4c0,0.3,0,0.7,0,1.3c0,1.1,0.2,2.6,0.5,4.5c0.7,3.8,1.7,8.9,2.6,13.9
					c1.9,10.1,3.9,20.3,3.9,20.3s-2.5-10-5-20c-1.2-5-2.5-10-3.4-13.8c-0.4-1.9-0.7-3.6-0.8-4.7c-0.1-0.6-0.1-1-0.1-1.4
					c0-0.3,0-0.5,0-0.5s0-0.3,0.1-0.9c0.1-0.6,0.2-1.4,0.4-2.4c0.1-0.5,0.3-1.1,0.5-1.6c0.1-0.3,0.2-0.5,0.3-0.8
					c0.1-0.3,0.3-0.6,0.4-0.9c0.6-1.2,1.4-2.3,2.4-3.2c2-1.9,4.6-2.9,6.6-2.9c0.5,0,0.9,0.1,1.3,0.1c0.4,0.1,0.7,0.2,1,0.3
					C230.5,92.2,230.8,92.4,230.8,92.4z"/>
			</g>
		</g>
	</g>
	<g id="XMLID_456_">
		<g id="XMLID_466_">
			<g id="XMLID_470_">
				<path id="XMLID_471_" class="st0" d="M224.6,118.7c0,0,0-0.5,0.1-1.1c0.1-0.6,0.3-1.2,0.3-1.2s1-0.6,2-0.8c1-0.3,2-0.2,2-0.2
					s-0.9,0.5-1.5,1.2c-0.6,0.7-1,1.5-1,1.5s-0.5,0.1-1,0.3C225.1,118.5,224.6,118.7,224.6,118.7z"/>
			</g>
		</g>
	</g>
	<g id="XMLID_448_">
		<g id="XMLID_458_">
			<g id="XMLID_462_">
				<polygon id="XMLID_463_" class="st0" points="227.7,123.2 227.6,121.7 229.6,121.3 229.2,123.3 				"/>
			</g>
		</g>
	</g>
	<g id="XMLID_440_">
		<g id="XMLID_450_">
			<g id="XMLID_454_">
				<path id="XMLID_455_" class="st0" d="M228.4,90.5c0,0,1.6,1.5,3,3.1c1.5,1.6,2.8,3.4,2.8,3.4s0.5,1,1.1,2.5
					c0.6,1.5,1.4,3.6,2,5.6c0.6,2.1,1.1,4.2,1.4,5.8c0.1,0.8,0.2,1.5,0.3,1.9c0.1,0.5,0.1,0.7,0.1,0.7s-1.1-4.2-2.8-8
					c-0.9-1.9-1.9-3.8-2.7-5.2c-0.8-1.4-1.4-2.2-1.4-2.2s-0.8-2-1.8-3.9C229.5,92.4,228.4,90.5,228.4,90.5z"/>
			</g>
		</g>
	</g>
	<g id="XMLID_432_">
		<g id="XMLID_442_">
			<g id="XMLID_446_">
				<path id="XMLID_447_" class="st0" d="M223,91.6c0,0-0.2-0.1-0.5-0.3c-0.3-0.2-0.7-0.5-1.1-0.9c-0.9-0.8-1.8-2.2-2.3-3.7
					c-0.6-1.5-0.8-3.1-0.9-4.4c0-0.6,0-1.1-0.1-1.4c0-0.3,0-0.6,0-0.6s0.1-0.4,0.2-1.1c0.2-0.7,0.4-1.7,0.8-2.8
					c0.8-2.3,2.2-5.2,4.2-7.6c1-1.2,2.1-2.3,3.3-3.3c1.2-0.9,2.3-1.7,3.3-2.2c1-0.6,2-0.9,2.7-0.8c0.7,0.1,0.9,0.5,0.9,0.5
					c0,0-0.3-0.3-1-0.4c-0.7,0-1.6,0.3-2.5,1c-1,0.6-2,1.5-3,2.5c-1,1-2,2.2-2.8,3.4c-1.7,2.5-2.8,5.3-3.3,7.5
					c-0.2,1.1-0.4,2-0.5,2.6c0,0.6-0.1,1-0.1,1s0,0.2-0.1,0.5c0,0.3-0.1,0.8-0.2,1.4c-0.1,1.1-0.2,2.6,0.1,4
					c0.2,1.5,0.8,2.9,1.5,3.8c0.3,0.5,0.7,0.8,0.9,1C222.9,91.4,223,91.6,223,91.6z"/>
			</g>
		</g>
	</g>
	<g id="XMLID_424_">
		<g id="XMLID_434_">
			<g id="XMLID_438_">
				<path id="XMLID_439_" class="st0" d="M241.5,79.1c0,0,0.7,1.4,1.2,2.9c0.5,1.5,0.8,3.1,0.8,3.1s0,0.8-0.2,2
					c-0.2,1.2-0.5,2.7-0.9,4.2c-0.5,1.5-1.1,2.9-1.6,4c-0.3,0.5-0.5,0.9-0.7,1.2c-0.2,0.3-0.3,0.5-0.3,0.5s1.1-2.9,1.4-5.9
					c0.2-1.5,0.2-3,0.1-4.1c-0.1-1.1-0.2-1.8-0.2-1.8s0.3-1.5,0.3-3C241.7,80.7,241.5,79.1,241.5,79.1z"/>
			</g>
		</g>
	</g>
	<g id="XMLID_416_">
		<g id="XMLID_426_">
			<g id="XMLID_430_">
				<polygon id="XMLID_431_" class="st0" points="259.3,220.9 262.7,228 266.1,243.3 260.5,228.7 				"/>
			</g>
		</g>
	</g>
	<g id="XMLID_408_">
		<g id="XMLID_418_">
			<g id="XMLID_422_">
				<path id="XMLID_423_" class="st0" d="M308.9,58.6c0,0,0-3.7,0-7.4c0-3.7,0.2-7.4,0.2-7.4s1-7.4,2.3-14.7
					c1.3-7.3,2.8-14.6,2.8-14.6s-1,7.3-1.7,14.7c-0.7,7.4-1.2,14.7-1.2,14.7s-0.7,3.6-1.3,7.3C309.5,55,308.9,58.6,308.9,58.6z"/>
			</g>
		</g>
	</g>
	<g id="XMLID_400_">
		<g id="XMLID_410_">
			<g id="XMLID_414_">
				<path id="XMLID_415_" class="st0" d="M314.7,17.6c0,0-0.1-0.3-0.2-0.7c-0.1-0.2-0.2-0.5-0.3-0.8c-0.1-0.3-0.3-0.6-0.5-1
					c-0.4-0.7-1-1.4-1.7-2.2c-0.7-0.7-1.6-1.3-2.5-1.8c-1.8-1-3.9-1.4-5.4-1.3c-0.7,0-1.3,0.2-1.8,0.3c-0.4,0.1-0.6,0.2-0.6,0.2
					s-0.1,0-0.3,0.1c-0.2,0.1-0.6,0.2-1.1,0.4c-0.7,0.3-1.9,0.9-3,1.9c-1.2,1-2.3,2.4-3.3,4.1c-1,1.7-1.8,3.7-2.5,5.8
					c-1.3,4.1-2.3,8.4-2.9,11.6c-0.6,3.2-1,5.4-1,5.4s0.2-2.2,0.6-5.4c0.5-3.3,1.1-7.6,2.2-11.9c0.6-2.1,1.3-4.3,2.3-6.2
					c0.9-1.9,2.1-3.6,3.4-4.8c1.2-1.2,2.6-2,3.6-2.5c0.4-0.2,0.8-0.3,1-0.4c0.4-0.1,0.5-0.1,0.5-0.1c0,0,0.3-0.1,0.8-0.2
					c0.5,0,1.3-0.1,2.2,0c1.8,0.1,4.1,0.9,6,2.3c0.9,0.7,1.7,1.5,2.4,2.3c0.6,0.9,1.2,1.7,1.4,2.5c0.2,0.4,0.3,0.8,0.4,1.1
					c0.1,0.3,0.2,0.6,0.2,0.8C314.6,17.3,314.7,17.6,314.7,17.6z"/>
			</g>
		</g>
	</g>
	<g id="XMLID_392_">
		<g id="XMLID_402_">
			<g id="XMLID_406_">
				<path id="XMLID_407_" class="st0" d="M294.2,38.2c0,0,0.8,0,1.6,0c0.8,0,1.6-0.1,1.6-0.1s1.3,0.7,2.8,1.2c1.4,0.5,3,0.8,3,0.8
					s-1.5,0.3-3.1,0.3c-1.6,0.1-3.2-0.1-3.2-0.1s-0.7-0.5-1.4-1C294.8,38.8,294.2,38.2,294.2,38.2z"/>
			</g>
		</g>
	</g>
	<g id="XMLID_384_">
		<g id="XMLID_394_">
			<g id="XMLID_398_">
				<path id="XMLID_399_" class="st0" d="M310.8,57.6c0,0,0.2-0.8,0.7-2.2c0.4-1.4,1.1-3.4,1.9-5.7c1.7-4.7,4.3-10.8,7.5-16.7
					c3.1-5.9,6.8-11.4,9.8-15.5c1.5-2,2.8-3.6,3.7-4.8c0.9-1.1,1.5-1.8,1.5-1.8s0.3-0.3,0.8-0.9c0.5-0.6,1.4-1.4,2.5-2.4
					c1.1-1,2.6-2.1,4.4-3.2c0.9-0.5,2-1,3.1-1.4c1.2-0.4,2.4-0.6,3.7-0.7c2.6-0.2,5.7,0.3,8.2,2.1c2.6,1.9,4.1,5.1,4.2,8.4
					c0.2,3.3-0.8,6.6-2.2,9.6c-1.5,3-3.2,5.8-4.9,8.6c-13.5,22.8-27,45.7-27,45.7s13-23.1,26-46.2c1.6-2.9,3.3-5.8,4.7-8.7
					c1.3-2.9,2.2-6,1.9-8.9c-0.1-1.5-0.5-2.9-1.1-4.1c-0.1-0.3-0.3-0.6-0.5-0.9c-0.2-0.3-0.4-0.5-0.6-0.8c-0.2-0.2-0.5-0.5-0.7-0.7
					c-0.3-0.2-0.5-0.4-0.8-0.6c-2.1-1.5-4.8-1.9-7-1.7c-1.2,0.1-2.2,0.4-3.2,0.7c-1,0.4-1.9,0.8-2.7,1.3c-1.6,1-3,2.1-4,3
					c-1,0.9-1.8,1.8-2.3,2.3c-0.5,0.6-0.8,0.9-0.8,0.9s-0.6,0.6-1.5,1.7c-1,1.1-2.3,2.6-3.9,4.5c-3.1,3.8-7,9.2-10.4,14.9
					c-3.4,5.7-6.3,11.6-8.2,16.2c-1,2.3-1.7,4.2-2.2,5.6C311.1,56.8,310.8,57.6,310.8,57.6z"/>
			</g>
		</g>
	</g>
	<g id="XMLID_376_">
		<g id="XMLID_386_">
			<g id="XMLID_390_">
				<path id="XMLID_391_" class="st0" d="M331.9,31.8c0,0,1.1,0.6,2.3,1.2c1.2,0.6,2.3,1.1,2.3,1.1s1.8,1.7,3.9,3.2
					c2,1.5,4.2,2.9,4.2,2.9s-2.4-0.8-4.8-1.9c-2.4-1.1-4.6-2.4-4.6-2.4s-0.9-1-1.7-2C332.7,32.8,331.9,31.8,331.9,31.8z"/>
			</g>
		</g>
	</g>
	<g id="XMLID_368_">
		<g id="XMLID_378_">
			<g id="XMLID_382_">
				<path id="XMLID_383_" class="st0" d="M324.9,49c0,0,0.6,0.4,1.3,0.7c0.6,0.3,1.3,0.6,1.3,0.6s0.7,1.1,1.7,2.1
					c0.9,1,2.1,1.8,2.1,1.8s-1.4-0.3-2.7-0.8c-1.4-0.5-2.6-1.4-2.6-1.4s-0.3-0.7-0.6-1.4C325.1,49.7,324.9,49,324.9,49z"/>
			</g>
		</g>
	</g>
	<g id="XMLID_360_">
		<g id="XMLID_370_">
			<g id="XMLID_374_">
				<path id="XMLID_375_" class="st0" d="M335.8,63.3c0,0,1.6-2.6,4-6.5c2.5-3.9,5.8-8.9,9.4-13.9c3.6-4.9,7.3-9.8,10.2-13.3
					c1.4-1.8,2.7-3.3,3.6-4.3c1-1,1.6-1.5,1.6-1.5s0.3-0.3,0.9-0.7c0.6-0.4,1.6-1.1,2.9-1.6c1.4-0.6,3.1-1,5.2-0.8
					c1,0.1,2.1,0.4,3.2,0.9c1.1,0.6,2,1.4,2.8,2.4c0.8,1,1.4,2,2.1,3c0.7,1.1,1.3,2.2,2,3.4c0.6,1.2,1.1,2.5,1.5,4
					c0.3,1.4,0.4,3,0,4.5c-0.7,3-2.4,5.6-4,8.1c-1.6,2.6-3.2,5.1-4.8,7.7c-6.4,10.4-12.7,20.7-17.5,28.5c-2.4,3.9-4.3,7.2-5.2,9.7
					c-0.5,1.2-0.8,2.2-1,2.9c-0.2,0.7-0.3,1.1-0.3,1.1s0.1-0.4,0.3-1.1c0.2-0.7,0.5-1.7,0.9-2.9c0.9-2.5,2.7-5.9,5-9.8
					c4.6-7.9,10.7-18.4,16.9-28.9c1.5-2.6,3.1-5.3,4.6-7.8c1.5-2.6,3.1-5.1,3.6-7.7c0.5-2.6-0.3-5.2-1.5-7.4
					c-0.6-1.1-1.3-2.2-1.9-3.2c-0.7-1-1.3-2-2-2.8c-1.3-1.7-3-2.4-4.7-2.5c-1.6-0.1-3.1,0.3-4.2,0.8c-1.1,0.5-1.9,1.1-2.4,1.5
					c-0.5,0.4-0.8,0.6-0.8,0.6s-0.6,0.4-1.5,1.3c-0.9,0.9-2.2,2.2-3.7,4c-3,3.4-7,8-10.8,12.8c-3.8,4.8-7.4,9.6-10,13.4
					C337.5,60.8,335.8,63.3,335.8,63.3z"/>
			</g>
		</g>
	</g>
	<g id="XMLID_352_">
		<g id="XMLID_362_">
			<g id="XMLID_366_">
				<path id="XMLID_367_" class="st0" d="M352.5,60c0,0,1-0.1,2-0.2c1-0.1,2-0.2,2-0.2s1.8,0.6,3.7,1.1c1.8,0.5,3.7,1,3.7,1
					s-1.9,0.1-3.9,0.1c-1.9,0-3.9,0-3.9,0s-0.9-0.5-1.8-0.9C353.4,60.4,352.5,60,352.5,60z"/>
			</g>
		</g>
	</g>
	<g id="XMLID_344_">
		<g id="XMLID_354_">
			<g id="XMLID_358_">
				<path id="XMLID_359_" class="st0" d="M346.6,72c0,0,1-0.5,1.9-0.9c0.9-0.5,1.8-1,1.8-1s2-0.2,4-0.7c2-0.4,3.9-1.1,3.9-1.1
					s-1.7,1.2-3.5,2.2c-1.8,1-3.8,1.8-3.8,1.8s-1.1,0-2.1,0C347.6,72.1,346.6,72,346.6,72z"/>
			</g>
		</g>
	</g>
	<g id="XMLID_336_">
		<g id="XMLID_346_">
			<g id="XMLID_350_">
				<path id="XMLID_351_" class="st0" d="M329.1,87.1c0,0,1.3,0.6,2.6,1.1c1.3,0.5,2.7,0.8,2.7,0.8s0.6,0.4,1.5,0.8
					c0.9,0.5,2.2,1,3.5,1.5c2.6,0.9,5.4,1.2,5.4,1.2s-2.8,0.3-5.7-0.1c-1.4-0.2-2.8-0.5-3.9-0.8c-1-0.3-1.7-0.6-1.7-0.6
					s-1.2-0.9-2.3-1.9C330,88.2,329.1,87.1,329.1,87.1z"/>
			</g>
		</g>
	</g>
	<g id="XMLID_328_">
		<g id="XMLID_338_">
			<g id="XMLID_342_">
				<path id="XMLID_343_" class="st0" d="M383.7,36.9c0,0,0.2,0,0.5,0.1c0.3,0.1,0.8,0.1,1.3,0.4c1.1,0.4,2.7,1.3,4.2,2.8
					c1.5,1.5,2.7,3.7,3.6,6.2c0.8,2.5,1.3,5.3,1.3,8.1c0,1.4-0.1,2.8-0.3,4.2c-0.1,0.7-0.2,1.3-0.3,2c-0.1,0.7-0.3,1.3-0.4,2
					c-0.3,1.3-0.7,2.5-1,3.7c-0.4,1.1-0.7,2.2-1.1,3.2c-0.7,2-1.4,3.6-1.9,4.7c-0.5,1.1-0.8,1.7-0.8,1.7s-0.6,1.3-1.8,3.4
					c-1.2,2.1-3,5.1-5.2,8.6c-2.2,3.5-4.8,7.6-7.4,12c-2.6,4.5-5.1,9.4-7.4,14.4c-4.6,10-8.4,20.4-11.1,28.2
					c-2.7,7.8-4.5,13.1-4.5,13.1s1.6-5.3,4.1-13.2c2.5-7.9,6.1-18.4,10.4-28.6c2.2-5.1,4.6-10.1,7.1-14.7c2.5-4.6,5-8.7,7.1-12.3
					c2.1-3.6,3.8-6.6,4.9-8.7c1.1-2.1,1.7-3.4,1.7-3.4s0.3-0.6,0.9-1.7c0.5-1.1,1.3-2.6,2.1-4.5c0.4-0.9,0.8-2,1.2-3.1
					c0.3-1.1,0.8-2.3,1.1-3.5c0.2-0.6,0.3-1.2,0.5-1.9c0.1-0.7,0.3-1.3,0.4-2c0.3-1.3,0.4-2.6,0.5-4c0.1-2.7-0.2-5.4-0.9-7.9
					c-0.7-2.5-1.8-4.6-3.2-6.1c-1.3-1.5-2.8-2.5-3.9-2.9c-0.5-0.3-1-0.3-1.3-0.5C383.9,36.9,383.7,36.9,383.7,36.9z"/>
			</g>
		</g>
	</g>
	<g id="XMLID_320_">
		<g id="XMLID_330_">
			<g id="XMLID_334_">
				<polygon id="XMLID_335_" class="st0" points="236.3,120.4 243.4,128.7 254.8,147.3 241.5,130 				"/>
			</g>
		</g>
	</g>
	<g id="XMLID_312_">
		<g id="XMLID_322_">
			<g id="XMLID_326_">
				<path id="XMLID_327_" class="st0" d="M233.4,118.1c0,0,0.1,0,0.4,0c0.2,0,0.6,0,1-0.1c0.8-0.1,1.8-0.5,2.8-1
					c0.9-0.5,1.8-1.1,2.4-1.6c0.6-0.5,1-0.9,1-0.9s0.9-0.5,2.1-1.6c1.2-1,2.7-2.6,4.1-4.3c1.4-1.7,2.9-3.4,4.1-4.5
					c0.6-0.6,1.1-1,1.5-1.3c0.4-0.3,0.6-0.5,0.6-0.5s-0.2,0.2-0.5,0.5c-0.3,0.3-0.8,0.9-1.3,1.5c-1,1.3-2.2,3.1-3.4,4.9
					c-1.2,1.8-2.5,3.7-3.6,5c-1.1,1.3-2.1,2-2.1,2s-0.5,0.3-1.3,0.7c-0.8,0.4-1.9,0.8-3,1.1c-1.1,0.3-2.3,0.3-3.1,0.2
					c-0.4,0-0.8-0.1-1-0.1C233.5,118.1,233.4,118.1,233.4,118.1z"/>
			</g>
		</g>
	</g>
	<g id="XMLID_304_">
		<g id="XMLID_314_">
			<g id="XMLID_318_">
				<path id="XMLID_319_" class="st0" d="M253.5,103.8c0,0,2.1,1.6,4.1,3.2c2.1,1.6,4.1,3.3,4.1,3.3s3.5,3.9,6.7,8
					c3.3,4.1,6.4,8.3,6.4,8.3s-3.5-3.8-7.2-7.5c-3.7-3.7-7.5-7.2-7.5-7.2s-1.6-2.1-3.3-4.1C255.2,105.8,253.5,103.8,253.5,103.8z"/>
			</g>
		</g>
	</g>
	<g id="XMLID_296_">
		<g id="XMLID_306_">
			<g id="XMLID_310_">
				<path id="XMLID_311_" class="st0" d="M250.7,121c0,0-0.2-0.2-0.1-0.5c0.1-0.3,0.5-0.9,1.2-0.8c0.7,0.1,1.3,0.7,1.8,1.1
					c0.6,0.5,1.1,1,1.7,1.5c2.4,2,4.8,4,4.8,4s4.2,4.5,8.8,8.8c4.5,4.3,9.4,8.2,9.4,8.2s-5.2-3.5-10.1-7.4c-5-3.8-9.7-8-9.7-8
					s-2.1-2.4-4-4.8c-0.5-0.6-1-1.2-1.4-1.8c-0.5-0.6-0.8-1.1-1.3-1.3c-0.5-0.2-0.9,0.2-1.1,0.4C250.5,120.8,250.7,121,250.7,121z"
					/>
			</g>
		</g>
	</g>
	<g id="XMLID_288_">
		<g id="XMLID_298_">
			<g id="XMLID_302_">
				<path id="XMLID_303_" class="st0" d="M311.7,186.9c0,0,1.3,1,3.3,2.5c2,1.5,4.6,3.5,7.2,5.6c2.6,2.1,5.1,4.2,7,5.8
					c1.9,1.6,3.1,2.7,3.1,2.7s2.4,2.3,5.8,5.9c3.4,3.6,7.9,8.5,12.2,13.5c4.3,5,8.4,10.2,11.4,14.1c1.5,2,2.7,3.6,3.6,4.8
					c0.9,1.2,1.3,1.8,1.3,1.8s-0.5-0.6-1.4-1.8c-0.9-1.1-2.2-2.7-3.8-4.6c-3.2-3.8-7.5-8.8-12-13.6c-4.5-4.8-9.2-9.5-12.7-12.9
					c-3.6-3.4-6-5.6-6-5.6s-1.1-1.2-2.9-2.9c-1.7-1.8-4.1-4.1-6.5-6.3c-2.4-2.3-4.8-4.5-6.7-6.2C313,188,311.7,186.9,311.7,186.9z"
					/>
			</g>
		</g>
	</g>
	<g id="XMLID_280_">
		<g id="XMLID_290_">
			<g id="XMLID_294_">
				<path id="XMLID_295_" class="st0" d="M299.6,148.2c0,0,0.6,1.2,1.8,2.8c1.2,1.6,2.9,3.6,4.8,5.6c3.8,3.8,7.6,7.6,7.6,7.6
					l27.8,32.8l-29.5-31.3c0,0-3.4-4.2-6.7-8.4c-1.7-2.1-3.2-4.4-4.3-6.1C300.2,149.5,299.6,148.2,299.6,148.2z"/>
			</g>
		</g>
	</g>
	<g id="XMLID_272_">
		<g id="XMLID_282_">
			<g id="XMLID_286_">
				<polygon id="XMLID_287_" class="st0" points="341.9,196.9 350.9,205.2 366.3,224.2 349.2,206.7 				"/>
			</g>
		</g>
	</g>
	<g id="XMLID_264_">
		<g id="XMLID_274_">
			<g id="XMLID_278_">
				<polygon id="XMLID_279_" class="st0" points="296.3,191.4 318.7,212.6 361.1,257.6 317.1,214.2 				"/>
			</g>
		</g>
	</g>
	<g id="XMLID_256_">
		<g id="XMLID_266_">
			<g id="XMLID_270_">
				<path id="XMLID_271_" class="st0" d="M279.2,125.9c0,0,0-0.2,0.1-0.5c0-0.3,0.1-0.8,0.2-1.4c0.2-1.1,0.7-2.6,1.3-4
					c0.6-1.4,1.4-2.8,2.1-3.7c0.7-1,1.2-1.6,1.2-1.6s1.1-1.1,3-2.5c1.9-1.4,4.5-2.9,7.3-4.2c2.8-1.3,5.6-2.2,7.8-3
					c2.2-0.7,3.6-1.2,3.6-1.2s-1.4,0.6-3.5,1.5c-2.1,0.9-4.8,2.2-7.4,3.6c-2.6,1.5-5,3.2-6.6,4.7c-1.6,1.5-2.5,2.6-2.5,2.6
					s-0.6,0.5-1.3,1.2c-0.8,0.8-1.8,1.9-2.6,3.1c-0.9,1.2-1.5,2.5-2,3.6c-0.2,0.5-0.4,1-0.5,1.3
					C279.3,125.7,279.2,125.9,279.2,125.9z"/>
			</g>
		</g>
	</g>
	<g id="XMLID_248_">
		<g id="XMLID_258_">
			<g id="XMLID_262_">
				<path id="XMLID_263_" class="st0" d="M300.8,145c0,0,0.1-0.4,0.3-1c0.2-0.6,0.4-1.3,0.8-2.1c0.3-0.7,0.7-1.5,1-2
					c0.3-0.5,0.5-0.9,0.5-0.9s0.6-0.6,1.5-1.4c1-0.8,2.3-1.7,3.7-2.4c1.4-0.7,2.9-1.3,4.1-1.6c0.6-0.2,1-0.3,1.4-0.3
					c0.3-0.1,0.5-0.1,0.5-0.1s-0.2,0.1-0.5,0.2c-0.3,0.1-0.8,0.3-1.3,0.6c-1,0.5-2.4,1.3-3.6,2.2c-1.2,0.9-2.3,2-3,2.9
					c-0.7,0.9-1.2,1.5-1.2,1.5s-1.2,0.9-2.3,2c-0.5,0.6-1,1.1-1.4,1.6C301,144.7,300.8,145,300.8,145z"/>
			</g>
		</g>
	</g>
	<g id="XMLID_240_">
		<g id="XMLID_250_">
			<g id="XMLID_254_">
				<path id="XMLID_255_" class="st0" d="M339.1,105.9c0,0,0.6,0.2,1.6,0.4c0.9,0.3,2.2,0.6,3.4,1.1c1.2,0.5,2.5,1.1,3.3,1.7
					c0.9,0.6,1.4,1.1,1.4,1.1s0.1,0.1,0.2,0.2c0.1,0.1,0.3,0.3,0.4,0.6c0.4,0.5,0.8,1.3,1.2,2.3c0.8,2,0.9,4.7,1,7.3
					c0.2,5.2,0.1,10.4,0.1,10.4s-0.4-5.2-1.2-10.3c-0.4-2.6-0.8-5.1-1.6-6.6c-0.4-0.8-0.8-1.3-1.2-1.7c-0.2-0.2-0.3-0.3-0.4-0.4
					c-0.1-0.1-0.1-0.1-0.1-0.1s-0.3-0.5-1-1.1c-0.6-0.6-1.6-1.4-2.7-2.1c-1.1-0.7-2.2-1.3-3.1-1.8
					C339.7,106.2,339.1,105.9,339.1,105.9z"/>
			</g>
		</g>
	</g>
	<g id="XMLID_232_">
		<g id="XMLID_242_">
			<g id="XMLID_246_">
				<polygon id="XMLID_247_" class="st0" points="351.1,129.6 349.6,130.7 346.6,129.6 349.6,128.4 				"/>
			</g>
		</g>
	</g>
	<g id="XMLID_224_">
		<g id="XMLID_234_">
			<g id="XMLID_238_">
				<path id="XMLID_239_" class="st0" d="M292.4,138.2c0,0,0.3-0.3,0.7-0.8c0.4-0.5,0.8-1.2,1.1-1.9c0.3-0.7,0.6-1.5,0.9-2.1
					c0.2-0.6,0.4-1,0.4-1s0.1-0.2,0.4-0.5c0.1-0.1,0.3-0.3,0.5-0.5c0.2-0.2,0.3-0.4,0.6-0.6c0.9-1,2.3-2.1,3.8-2.9
					c1.5-0.9,3.1-1.4,4.3-1.7c1.2-0.3,2-0.4,2-0.4s-0.8,0.2-1.9,0.7c-1.1,0.5-2.5,1.3-3.8,2.3c-1.2,1-2.3,2.2-2.9,3.2
					c-0.2,0.2-0.3,0.5-0.4,0.7c-0.1,0.2-0.2,0.4-0.3,0.5c-0.2,0.3-0.3,0.5-0.3,0.5s-0.3,0.3-0.7,0.8c-0.4,0.5-1,1.1-1.6,1.7
					c-0.6,0.6-1.3,1.2-1.8,1.5C292.8,138,292.4,138.2,292.4,138.2z"/>
			</g>
		</g>
	</g>
	<g id="XMLID_216_">
		<g id="XMLID_226_">
			<g id="XMLID_230_">
				<path id="XMLID_231_" class="st0" d="M199.9,143c0,0-0.1,0.1-0.2,0.4c-0.1,0.2-0.3,0.6-0.4,1.1c-0.2,1-0.1,2.5,0.7,4
					c0.8,1.5,2.4,2.8,4.4,3.5c2,0.8,4.2,1.2,6.5,1.6c4.5,0.9,9,1.8,12.4,2.5c1.7,0.4,3.1,0.7,4.1,1c1,0.3,1.6,0.5,1.6,0.5
					s0.3,0.1,0.8,0.3c0.5,0.2,1.3,0.6,2.2,1.1c1.8,1,4.5,2.9,6.2,6.3c0.4,0.8,0.7,1.8,0.9,2.8c0.1,0.3,0.1,0.5,0.1,0.8
					c0,0.3,0,0.5,0,0.8c0,0.5,0,1.1-0.1,1.6c-0.3,2.1-1.2,4.2-2.4,6.1c-2.4,3.7-5.3,7.4-8.5,10.7c-3.2,3.4-6.7,6.5-10.2,9
					c-1.7,1.3-3.5,2.5-5.2,3.5c-1.7,1.1-3.3,2-4.7,3c-1.4,1-2.6,2-3.6,3c-1,1-1.6,2-2.1,2.9c-0.4,0.9-0.7,1.7-0.8,2.2
					c-0.1,0.5-0.2,0.8-0.2,0.8s0-0.3,0.1-0.8c0.1-0.5,0.3-1.3,0.7-2.2c0.4-0.9,1.1-2,2-3c0.9-1.1,2.1-2.1,3.5-3.2
					c1.4-1.1,2.9-2.1,4.6-3.2c1.6-1.1,3.3-2.3,5-3.7c3.4-2.7,6.7-5.8,9.8-9.2c3-3.4,5.8-7.1,8-10.8c1-1.8,1.8-3.7,2-5.5
					c0-0.5,0.1-0.9,0-1.3c0-0.2,0-0.5-0.1-0.7c0-0.2,0-0.4-0.1-0.6c-0.2-0.8-0.5-1.6-0.8-2.3c-0.7-1.4-1.7-2.5-2.7-3.4
					c-0.5-0.4-1-0.8-1.4-1.1c-0.5-0.3-0.9-0.6-1.4-0.8c-0.8-0.4-1.5-0.7-2-0.9c-0.5-0.2-0.7-0.3-0.7-0.3s-2-0.9-5.3-1.8
					c-3.3-0.9-7.8-2.1-12.2-3.3c-2.2-0.6-4.5-1.1-6.5-2.1c-1-0.5-1.9-1.1-2.7-1.7c-0.8-0.7-1.3-1.5-1.7-2.3
					c-0.8-1.6-0.8-3.2-0.5-4.1c0.2-0.5,0.3-0.8,0.5-1.1C199.8,143.1,199.9,143,199.9,143z"/>
			</g>
		</g>
	</g>
	<g id="XMLID_208_">
		<g id="XMLID_218_">
			<g id="XMLID_222_">
				<path id="XMLID_223_" class="st0" d="M215.8,219.6c0,0,0,0.6-0.7,1.1c-0.3,0.3-0.9,0.5-1.5,0.5c-0.6,0-1.3-0.2-1.9-0.8
					c-1.1-1.1-1.4-3.1-0.9-4.9c0.2-0.9,0.7-1.8,1.3-2.6c0.6-0.8,1.4-1.5,2.1-2.1c3-2.4,6-4.8,8.4-6.6c2.3-1.7,3.9-2.9,3.9-2.9
					s0.8-0.5,2.3-1.4c0.7-0.4,1.6-0.9,2.7-1.5c0.3-0.1,0.6-0.3,1-0.4c0.4-0.1,0.9-0.2,1.3-0.1c1.1,0.1,1.9,0.7,2.5,1.4
					c0.6,0.7,0.9,1.6,1,2.6c0,0.5,0,1-0.1,1.4c-0.1,0.5-0.3,0.9-0.5,1.3c-0.8,1.7-2.1,3-3,4.4c-0.5,0.7-0.9,1.5-1.1,2.2
					c-0.1,0.4-0.1,0.8-0.1,1.1c0.1,0.5,0.1,0.8,0.3,1.2c0.6,1.6,2.1,3,2.9,4.9c0.2,0.5,0.3,1,0.4,1.5c0.1,0.6,0,1.1-0.1,1.6
					c-0.2,1-0.8,2-1.4,2.7c-0.7,0.8-1.5,1.3-2.5,1.7c-0.9,0.3-1.9,0.4-2.9,0.3c-1.9-0.2-3.6-1.1-4.8-2.4c-0.6-0.6-1.1-1.3-1.6-1.8
					c-0.3-0.3-0.5-0.5-0.8-0.7l-0.5-0.3l-0.5-0.2c-1.3-0.6-2.6-0.7-3.8-0.6c-1.2,0.1-2.2,0.3-3,0.5c-1.6,0.4-2.5,0.8-2.5,0.8
					s0.9-0.4,2.5-0.9c0.8-0.2,1.8-0.5,3-0.6c1.2-0.1,2.6-0.1,3.9,0.5c0.2,0.1,0.3,0.2,0.5,0.3l0.5,0.3c0.3,0.2,0.6,0.5,0.9,0.8
					c0.6,0.6,1.1,1.2,1.6,1.8c1.1,1.1,2.7,1.9,4.5,2c0.9,0.1,1.7,0,2.5-0.4c0.8-0.3,1.5-0.8,2.1-1.5c0.6-0.7,1-1.5,1.1-2.3
					c0.1-0.4,0.1-0.9,0.1-1.3c0-0.4-0.2-0.9-0.3-1.2c-0.7-1.6-2.2-2.9-3.1-4.8c-0.2-0.4-0.4-1.1-0.4-1.5c-0.1-0.6,0-1.1,0.1-1.6
					c0.2-1,0.7-2,1.2-2.8c1-1.6,2.2-2.9,2.7-4.3c0.1-0.3,0.2-0.7,0.3-1c0.1-0.4,0.1-0.6,0.1-0.9c-0.1-0.6-0.3-1.2-0.7-1.5
					c-0.3-0.4-0.8-0.6-1-0.6c-0.3,0-0.4,0-0.6,0.1c-0.2,0.1-0.4,0.2-0.6,0.3c-1,0.6-1.9,1.1-2.6,1.6c-1.4,0.9-2.2,1.4-2.2,1.4
					s-1.6,1-4.1,2.5c-2.4,1.5-5.6,3.7-8.8,5.9c-1.6,1.1-2.9,2.3-3.5,4c-0.6,1.6-0.4,3.4,0.5,4.4c0.4,0.5,1,0.8,1.6,0.8
					c0.6,0,1.1-0.1,1.4-0.3C215.7,220.2,215.7,219.6,215.8,219.6z"/>
			</g>
		</g>
	</g>
	<g id="XMLID_200_">
		<g id="XMLID_210_">
			<g id="XMLID_214_">
				<path id="XMLID_215_" class="st0" d="M255.1,204.4c0,0-0.1-0.2-0.2-0.4c-0.1-0.3-0.3-0.7-0.6-1.2c-0.3-0.5-0.7-1-1.3-1.6
					c-0.6-0.6-1.2-1.1-2-1.7c-1.5-1.2-3.5-2.5-4.8-4.7c-0.3-0.5-0.6-1.1-0.8-1.8c-0.2-0.6-0.3-1.3-0.4-1.9c-0.1-1.3-0.1-2.7,0.1-4
					c0.4-2.6,1.2-5.2,1.7-7.5c0.6-2.4,0.8-4.5,0.9-6.4c0.2-3.8-0.2-6.3-0.2-6.3c-0.2-3-0.9-6-1.9-8.9l-0.4-1l1-0.3
					c6.4-1.7,13.5,0.9,17.4,6c0.5,0.6,0.9,1.3,1.3,2c0.4,0.7,0.8,1.4,1,2.3c0.1,0.4,0.1,1,0,1.4c-0.2,0.6-0.5,0.9-0.8,1.3
					c-0.7,0.6-1.4,1-2,1.4c-2.6,1.5-5,3.4-6.8,5.8c-0.9,1.2-1.8,2.4-2.1,3.8c-0.2,0.7-0.2,1.4,0,2.1c0.1,0.7,0.5,1.3,0.9,1.9
					c0.9,1.1,2.2,1.9,3.7,2.2c1.5,0.3,3,0,4.4-0.5c1.4-0.5,2.8-1.3,3.5-2.6c0.7-1.3,0.6-2.9,0.1-4.3c-0.6-1.4-1.7-2.6-2.9-3.4
					c-1.3-0.9-2.7-1.5-4-2.2c1.4,0.6,2.8,1.2,4.1,2.1c1.3,0.8,2.4,2,3.1,3.4c0.6,1.4,0.8,3.2,0,4.6c-0.8,1.4-2.2,2.3-3.7,2.9
					c-1.5,0.6-3.1,0.9-4.7,0.7c-1.6-0.2-3.1-1-4.2-2.3c-0.5-0.6-0.9-1.4-1.1-2.2c-0.2-0.8-0.2-1.7,0-2.5c0.3-1.6,1.2-3,2.2-4.3
					c1.9-2.5,4.3-4.6,7-6.2c0.7-0.4,1.3-0.8,1.7-1.2c0.2-0.2,0.4-0.5,0.4-0.7c0.1-0.3,0.1-0.5,0-0.8c-0.1-0.6-0.5-1.3-0.9-1.9
					c-0.4-0.6-0.8-1.2-1.3-1.8c-3.7-4.5-10.2-6.6-15.7-5l0.7-1.3c1.1,3,1.9,6.2,2.2,9.4c0,0,0,0.7,0.1,1.8c0,1.2,0,2.8-0.2,4.8
					c-0.2,2-0.6,4.3-1.3,6.7c-0.7,2.4-1.6,4.8-2.1,7.3c-0.5,2.5-0.5,5.1,0.6,7.2c1.1,2.1,3,3.5,4.4,4.7c0.7,0.6,1.4,1.3,1.9,1.8
					c0.5,0.6,0.9,1.2,1.2,1.7c0.3,0.5,0.4,0.9,0.5,1.2C255,204.2,255.1,204.4,255.1,204.4z"/>
			</g>
		</g>
	</g>
	<g id="XMLID_192_">
		<g id="XMLID_202_">
			<g id="XMLID_206_">
				<path id="XMLID_207_" class="st0" d="M269.2,181.1l4.8-2.1l2.4-1c0.4-0.2,0.9-0.3,1.4-0.3c0.5,0,1,0.1,1.5,0.4
					c0.9,0.6,1.3,1.6,1.6,2.4l0.9,2.4l1.8,4.9l0.2,0.6l-0.5,0.5l-1.5,1.6c0,0-0.5,0.5-1.5,1.3c-1,0.8-2.3,2-4,3.3
					c-3.4,2.7-8,6.1-13,9c-1.2,0.7-2.5,1.5-4,1.8c-1.5,0.3-3-0.1-4.3-0.8c-1.2-0.7-2.2-1.6-3.1-2.4c-0.9-0.8-1.7-1.6-2.5-2.4
					c-3.1-2.9-5.2-4.9-5.2-4.9s2.2,1.8,5.4,4.6c0.8,0.7,1.7,1.4,2.6,2.2c0.9,0.8,1.9,1.6,3.1,2.2c0.6,0.3,1.2,0.5,1.8,0.6
					c0.3,0.1,0.6,0.1,1,0.1c0.3,0,0.6-0.1,0.9-0.1c1.3-0.3,2.4-1.1,3.6-1.9c4.7-3.2,9.2-6.7,12.3-9.5c1.6-1.4,2.9-2.6,3.8-3.5
					c0.9-0.9,1.4-1.4,1.4-1.4l1.6-1.4l-0.3,1l-1.3-5l-0.6-2.5c-0.2-0.8-0.5-1.6-1-2c-0.5-0.4-1.3-0.4-2.1-0.2l-2.5,0.8L269.2,181.1z
					"/>
			</g>
		</g>
	</g>
	<g id="XMLID_184_">
		<g id="XMLID_194_">
			<g id="XMLID_198_">
				<polygon id="XMLID_199_" class="st0" points="237.6,221.9 240.7,218 249.1,212.8 242.1,219.8 				"/>
			</g>
		</g>
	</g>
	<g id="XMLID_176_">
		<g id="XMLID_186_">
			<g id="XMLID_190_">
				<path id="XMLID_191_" class="st0" d="M203.1,215.5c0,0-0.1,0.2-0.2,0.4c-0.1,0.3-0.3,0.7-0.5,1.2c-0.3,1-0.4,2.4-0.1,3.6
					c0.3,1.3,0.9,2.5,1.4,3.3c0.5,0.8,0.9,1.4,0.9,1.4s0.6,1.2,1.7,2.9c1.1,1.8,2.6,4.2,3.9,6.7c1.3,2.5,2.4,5.1,3.1,7.1
					c0.7,2,1.1,3.3,1.1,3.3s-0.5-1.3-1.5-3.2c-0.9-1.9-2.3-4.3-3.8-6.7c-1.5-2.3-3.1-4.6-4.4-6.2c-1.3-1.6-2.1-2.9-2.1-2.9
					s-0.3-0.7-0.7-1.7c-0.4-1.1-0.8-2.5-0.8-4c0-1.5,0.4-2.9,0.9-3.9c0.2-0.5,0.5-0.8,0.7-1.1C203,215.6,203.1,215.5,203.1,215.5z"
					/>
			</g>
		</g>
	</g>
	<g id="XMLID_168_">
		<g id="XMLID_178_">
			<g id="XMLID_182_">
				<path id="XMLID_183_" class="st0" d="M232.8,234.9c0,0,1.6-0.9,4-2.3c2.4-1.4,5.6-3.3,8.7-5.3c3.1-2,6.2-4,8.4-5.6
					c2.3-1.6,3.7-2.7,3.7-2.7s3.1-2,7.6-5.1c4.5-3.1,10.4-7.5,16.1-12.2c5.7-4.7,11.1-9.6,15.1-13.5c1-1,1.9-1.9,2.7-2.6
					c0.8-0.8,1.5-1.5,2-2.1c1.1-1.2,1.8-1.8,1.8-1.8s-0.6,0.7-1.7,1.9c-0.5,0.6-1.2,1.3-2,2.2c-0.8,0.8-1.6,1.7-2.6,2.7
					c-3.8,4-9.1,9.2-14.6,14.1c-5.5,4.9-11.3,9.6-15.7,12.9c-4.5,3.3-7.5,5.4-7.5,5.4s-1.6,1-4,2.4c-2.4,1.4-5.6,3.2-8.9,5
					c-3.3,1.8-6.6,3.4-9.1,4.6C234.5,234.2,232.8,234.9,232.8,234.9z"/>
			</g>
		</g>
	</g>
	<g id="XMLID_160_">
		<g id="XMLID_170_">
			<g id="XMLID_174_">
				<path id="XMLID_175_" class="st0" d="M204.1,151.3c0,0-0.3-0.1-0.6-0.4c-0.4-0.3-0.8-0.7-1.2-1.3c-0.8-1-1.4-2.2-1.4-2.2
					s-0.1-0.6-0.2-1.5c-0.1-0.9-0.3-2.3,0.3-3.6c0.3-0.6,0.9-1.3,1.5-1.4c0.6-0.2,1.2,0,1.7,0.2c0.4,0.2,0.7,0.6,0.7,0.9
					c0.1,0.3,0,0.4,0,0.4c0,0,0-0.2-0.1-0.4c-0.1-0.2-0.4-0.5-0.8-0.6c-0.4-0.1-0.9-0.1-1.3,0.2c-0.4,0.2-0.6,0.6-0.7,1.1
					c-0.2,1,0.2,2,0.5,2.8c0.3,0.8,0.5,1.4,0.5,1.4s0,1.2,0.2,2.3c0.1,0.6,0.3,1.1,0.5,1.5C204,151,204.1,151.3,204.1,151.3z"/>
			</g>
		</g>
	</g>
	<g id="XMLID_152_">
		<g id="XMLID_162_">
			<g id="XMLID_166_">
				<path id="XMLID_167_" class="st0" d="M202.1,149.4c0,0,6,0.3,11.9,0.4c6,0.1,11.9,0.1,11.9,0.1s11.9,0.8,23.8,1
					c6,0.1,11.9,0.1,16.4,0c1.1,0,2.1-0.1,3.1,0c0.9,0.1,1.7,0.3,2.3,0.6c1.2,0.6,1.3,1.5,1.4,1.5c0,0-0.2-0.8-1.4-1.4
					c-0.6-0.3-1.4-0.4-2.3-0.5c-0.9,0-1.9,0.1-3,0.1c-4.5,0.3-10.4,0.6-16.4,0.7c-11.9,0.4-23.9,0.1-23.9,0.1s-6-0.5-11.9-1.2
					C208,150.2,202.1,149.4,202.1,149.4z"/>
			</g>
		</g>
	</g>
	<g id="XMLID_144_">
		<g id="XMLID_154_">
			<g id="XMLID_158_">
				<path id="XMLID_159_" class="st0" d="M202.2,141.7c0,0,6.5-0.4,12.9-0.6c6.5-0.2,13-0.2,13-0.2s3.2,0.2,8.1,0.6
					c4.8,0.4,11.3,1,17.7,1.7c6.4,0.7,12.8,1.6,17.6,2.4c2.4,0.4,4.4,0.7,5.8,0.9c1.4,0.2,2.2,0.4,2.2,0.4s-0.8-0.1-2.2-0.3
					c-1.4-0.2-3.4-0.4-5.8-0.7c-4.8-0.5-11.3-1.1-17.7-1.6c-6.4-0.5-12.9-0.8-17.7-0.9c-4.8-0.2-8.1-0.2-8.1-0.2s-6.4-0.5-12.9-0.9
					C208.6,141.8,202.2,141.7,202.2,141.7z"/>
			</g>
		</g>
	</g>
	<g id="XMLID_136_">
		<g id="XMLID_146_">
			<g id="XMLID_150_">
				<path id="XMLID_151_" class="st0" d="M273.7,146.9c0,0,0.3,0,0.7,0c0.5,0,1.1,0,1.9,0.1c1.5,0.2,3.6,0.8,5.5,1.7
					c1.9,0.9,3.7,2.1,4.9,3c1.3,1,2.1,1.6,2.1,1.6s0.4,0.4,1,1.1c0.6,0.7,1.5,1.7,2.4,2.9c1.9,2.4,4.3,5.8,6.8,9
					c4.9,6.6,9.7,13.2,9.7,13.2s-5.3-6.2-10.6-12.5c-2.7-3.1-5.3-6.3-7.3-8.5c-1-1.1-1.9-2-2.5-2.6c-0.6-0.6-1-0.9-1-0.9
					s-0.7-0.8-1.7-1.8c-1.1-1.1-2.5-2.4-4.2-3.5c-1.7-1.1-3.5-1.9-5-2.3c-0.4-0.1-0.7-0.2-1-0.3c-0.3-0.1-0.6-0.1-0.8-0.1
					C274,147,273.7,146.9,273.7,146.9z"/>
			</g>
		</g>
	</g>
	<g id="XMLID_128_">
		<g id="XMLID_138_">
			<g id="XMLID_142_">
				<path id="XMLID_143_" class="st0" d="M279.7,174.1c0,0,1.1,0.6,2.2,1.3c1.1,0.7,2.2,1.4,2.2,1.4s1.6,2,3,4.1
					c1.4,2.1,2.7,4.3,2.7,4.3s-1.7-1.8-3.5-3.5c-1.8-1.7-3.7-3.3-3.7-3.3s-0.6-1.1-1.3-2.1C280.4,175.2,279.7,174.1,279.7,174.1z"/>
			</g>
		</g>
	</g>
	<g id="XMLID_120_">
		<g id="XMLID_130_">
			<g id="XMLID_134_">
				<path id="XMLID_135_" class="st0" d="M280.1,169.6c0,0,0.2,0,0.5,0c0.3,0,0.7-0.1,1.2-0.3c1-0.3,2.1-0.9,3.4-1.5
					c0.6-0.3,1.3-0.5,2-0.6c0.2,0,0.3-0.1,0.5-0.1c0.2,0,0.3,0,0.5,0c0.4,0,0.7,0,1,0.1c0.6,0.1,1.1,0.2,1.4,0.3
					c0.3,0.1,0.5,0.2,0.5,0.2s0.3,0.2,0.9,0.6c0.5,0.4,1.2,1.1,1.9,2c1.3,1.8,2.1,4.7,2.1,7.5c0.1,2.8-0.7,5.6-2.1,7.2
					c-0.7,0.8-1.4,1.3-2,1.5c-0.6,0.2-0.9,0.2-0.9,0.3c0,0,0.3-0.1,0.9-0.3c0.5-0.3,1.2-0.8,1.7-1.6c1.1-1.6,1.6-4.3,1.2-6.9
					c-0.3-2.6-1.3-5.1-2.5-6.4c-0.6-0.7-1.2-1.1-1.6-1.4c-0.4-0.3-0.7-0.4-0.7-0.4s-0.1-0.1-0.3-0.2c-0.2-0.1-0.5-0.3-0.9-0.4
					c-0.2-0.1-0.4-0.1-0.6-0.2c-0.1,0-0.3,0-0.4-0.1c-0.1,0-0.3,0-0.4,0c-0.6,0-1.2,0.1-1.8,0.2c-1.3,0.3-2.6,0.7-3.7,0.7
					c-0.5,0.1-0.9,0-1.2,0C280.3,169.6,280.1,169.6,280.1,169.6z"/>
			</g>
		</g>
	</g>
	<g id="XMLID_112_">
		<g id="XMLID_122_">
			<g id="XMLID_126_">
				<path id="XMLID_127_" class="st0" d="M260.9,153.9c0,0,1.1,0.1,2.2,0.4c1.1,0.3,2.2,0.7,2.2,0.7s0.4,0.4,1,1
					c0.6,0.6,1.4,1.4,2,2.3c1.4,1.8,2.2,3.8,2.2,3.8s-1.4-1.7-3-3c-0.8-0.7-1.7-1.2-2.4-1.6c-0.7-0.4-1.1-0.6-1.1-0.6
					s-0.7-0.8-1.5-1.6C261.8,154.6,260.9,153.9,260.9,153.9z"/>
			</g>
		</g>
	</g>
	<g id="XMLID_104_">
		<g id="XMLID_114_">
			<g id="XMLID_118_">
				<path id="XMLID_119_" class="st0" d="M261,151c0,0,2.6,0.2,5.1,0.6c2.6,0.3,5.1,0.8,5.1,0.8s1.2,0.4,3,1.1
					c0.9,0.4,1.9,0.8,3,1.3c0.6,0.2,1.1,0.5,1.7,0.8c0.6,0.3,1.2,0.6,1.8,1c0.6,0.4,1.1,1.1,1.2,1.9c0,0.2,0,0.4,0,0.6
					c-0.1,0.2-0.1,0.4-0.2,0.5c-0.2,0.3-0.4,0.6-0.6,0.8c-0.9,0.8-1.7,1.6-2.4,2.3c-1.4,1.3-2.3,2.2-2.3,2.2s0.8-1,2.1-2.4
					c0.6-0.7,1.3-1.6,2.1-2.5c0.2-0.2,0.3-0.5,0.4-0.7c0-0.1,0.1-0.2,0.1-0.3l0-0.1l0-0.1c0-0.1,0-0.1,0-0.2
					c-0.1-0.4-0.5-0.8-0.9-1.1c-0.5-0.3-1-0.5-1.6-0.7c-0.6-0.2-1.2-0.4-1.7-0.6c-1.1-0.3-2.2-0.7-3.1-0.9c-1.8-0.5-3.1-0.8-3.1-0.8
					s-2.3-1-4.7-1.9C263.5,151.8,261,151,261,151z"/>
			</g>
		</g>
	</g>
	<g id="XMLID_96_">
		<g id="XMLID_106_">
			<g id="XMLID_110_">
				<path id="XMLID_111_" class="st0" d="M262.4,172.9c0,0,0.7,0.4,1.4,0.8c0.7,0.4,1.4,0.8,1.4,0.8s0.8,1.3,1.6,2.6
					c0.8,1.3,1.7,2.6,1.7,2.6s-1.3-0.9-2.5-1.8c-1.2-0.9-2.5-1.9-2.5-1.9s-0.3-0.8-0.6-1.5C262.7,173.7,262.4,172.9,262.4,172.9z"/>
			</g>
		</g>
	</g>
	<g id="XMLID_88_">
		<g id="XMLID_98_">
			<g id="XMLID_102_">
				<path id="XMLID_103_" class="st0" d="M268.5,167.9c0,0,3-2.6,6.5-4.8c1.7-1.1,3.5-2,4.9-2.7c1.4-0.7,2.3-1.1,2.3-1.1
					c1-0.3,2.1-0.6,3.3-0.8c1.2-0.2,2.4-0.2,3.6,0.2l0.4,0.1l0.1,0.3c0.3,0.6,0.4,1.3,0.4,1.9c0,0.6-0.1,1.3-0.3,1.8
					c-0.4,1.2-1,2.1-1.7,3c-0.7,0.9-1.5,1.7-2.3,2.4c-0.8,0.7-1.6,1.5-2.4,2.2c-3.3,2.8-6.7,5.3-10.4,7.5c3.5-2.4,6.8-5.2,9.8-8.2
					c0.8-0.7,1.5-1.5,2.2-2.3c0.7-0.8,1.4-1.6,2-2.4c1.1-1.6,1.9-3.7,1-5.1l0.5,0.5c-1.7-0.5-3.7,0.2-5.7,1c0,0-1,0.2-2.4,0.7
					c-1.4,0.4-3.3,1.1-5.1,1.9C271.9,165.7,268.5,167.9,268.5,167.9z"/>
			</g>
		</g>
	</g>
	<g id="XMLID_80_">
		<g id="XMLID_90_">
			<g id="XMLID_94_">
				<path id="XMLID_95_" class="st0" d="M399.9,217.7c0,0,0.7,1.5,1.3,3.1c0.6,1.5,1.2,3.1,1.2,3.1s0.3,3.3,0.4,6.6
					c0.1,3.3,0,6.5,0,6.5s-0.5-3.2-1.1-6.4c-0.7-3.2-1.5-6.3-1.5-6.3s0-1.6-0.1-3.3C400,219.3,399.9,217.7,399.9,217.7z"/>
			</g>
		</g>
	</g>
	<g id="XMLID_72_">
		<g id="XMLID_82_">
			<g id="XMLID_86_">
				<path id="XMLID_87_" class="st0" d="M381.3,164.7c0,0,0.6,2,1.1,4.1c0.3,1,0.5,2.1,0.7,2.8c0.2,0.8,0.3,1.3,0.3,1.3
					s0,1.1-0.1,2.7c-0.1,1.6-0.3,3.7-0.8,5.8c-0.4,2.1-1.2,4.1-1.9,5.5c-0.2,0.4-0.3,0.7-0.5,1c-0.2,0.3-0.3,0.5-0.4,0.7
					c-0.2,0.4-0.4,0.6-0.4,0.6s0.1-0.2,0.3-0.7c0.1-0.2,0.2-0.5,0.3-0.8c0.1-0.3,0.2-0.6,0.3-1c0.5-1.5,0.9-3.5,1.1-5.5
					c0.2-2,0.1-4.1,0-5.6c-0.1-1.5-0.3-2.5-0.3-2.5s0-0.5,0.1-1.3c0.1-0.8,0.1-1.8,0.1-2.9C381.3,166.8,381.3,164.7,381.3,164.7z"/>
			</g>
		</g>
	</g>
	<g id="XMLID_64_">
		<g id="XMLID_74_">
			<g id="XMLID_78_">
				<path id="XMLID_79_" class="st0" d="M384.4,185.1c0,0,0.2,0.5,0.6,1.1c0.3,0.7,0.8,1.6,1.1,2.6c0.4,1,0.7,2,0.9,2.7
					c0.2,0.8,0.3,1.3,0.3,1.3s0.1,1,0,2.6c-0.1,1.6-0.2,3.6-0.7,5.6c-0.4,2-1,4-1.6,5.4c-0.3,0.7-0.5,1.3-0.7,1.7
					c-0.2,0.4-0.3,0.6-0.3,0.6s0.1-0.2,0.2-0.7c0.1-0.4,0.3-1,0.5-1.8c0.3-1.5,0.7-3.4,0.8-5.4c0.1-2,0-4-0.1-5.4
					c-0.2-1.5-0.4-2.4-0.4-2.4s0-0.5,0-1.2c0-0.7,0-1.7-0.1-2.7c-0.1-1-0.2-2-0.4-2.7C384.5,185.6,384.4,185.1,384.4,185.1z"/>
			</g>
		</g>
	</g>
	<g id="XMLID_56_">
		<g id="XMLID_66_">
			<g id="XMLID_70_">
				<path id="XMLID_71_" class="st0" d="M391.7,199.9c0,0,0.5,2,0.8,4c0.3,2,0.5,4.2,0.5,4.2s-0.1,1-0.4,2.6
					c-0.3,1.5-0.8,3.5-1.5,5.5c-0.7,2-1.5,3.8-2.1,5.2c-0.3,0.7-0.6,1.3-0.8,1.6c-0.2,0.4-0.3,0.6-0.3,0.6s1.5-3.8,2.2-7.8
					c0.4-2,0.6-4,0.7-5.5c0.1-1.5,0.1-2.5,0.1-2.5s0.4-2,0.7-4C391.7,202,391.7,199.9,391.7,199.9z"/>
			</g>
		</g>
	</g>
	<g id="XMLID_48_">
		<g id="XMLID_58_">
			<g id="XMLID_62_">
				<path id="XMLID_63_" class="st0" d="M393.2,211.9c0,0,1.2,1,2.3,2.3c0.5,0.6,1,1.4,1.3,1.9c0.3,0.6,0.5,1,0.5,1s0.2,0.9,0.1,2.2
					c0,0.6-0.2,1.5-0.4,2.2c-0.3,0.8-0.7,1.6-1.2,2.2c-1.1,1.4-2.6,2.2-3.8,2.4c-0.6,0.1-1.1,0.1-1.5,0.1c-0.3-0.1-0.5-0.1-0.5-0.1
					s0.2,0,0.5,0c0.3,0,0.8-0.1,1.4-0.3c1.1-0.4,2.3-1.4,3-2.7c0.3-0.6,0.6-1.4,0.7-2c0.1-0.7,0.1-1.3,0-1.8c-0.2-1-0.4-1.7-0.4-1.7
					s0-0.4-0.1-0.9c-0.1-0.5-0.2-1.3-0.5-2C394,213.3,393.2,211.9,393.2,211.9z"/>
			</g>
		</g>
	</g>
	<g id="XMLID_40_">
		<g id="XMLID_50_">
			<g id="XMLID_54_">
				<path id="XMLID_55_" class="st0" d="M389.3,227.4c0,0,0.8,0.8,1.6,1.6c0.8,0.8,1.5,1.7,1.5,1.7s0.7,2.2,1,4.4
					c0.4,2.2,0.4,4.4,0.4,4.4s-0.6-2.1-1.4-4.1c-0.8-2-2-3.7-2-3.7s-0.2-1.1-0.4-2.1C389.6,228.5,389.3,227.4,389.3,227.4z"/>
			</g>
		</g>
	</g>
	<g id="XMLID_32_">
		<g id="XMLID_42_">
			<g id="XMLID_46_">
				<path id="XMLID_47_" class="st0" d="M396.9,223c0,0,0.7,0.5,1.4,1.2c0.7,0.6,1.4,1.3,1.4,1.3s0.6,1.7,0.9,3.5
					c0.3,1.8,0.4,3.5,0.4,3.5s-0.6-1.6-1.5-3.1c-0.8-1.5-1.8-2.8-1.8-2.8s-0.1-0.9-0.3-1.7C397.2,223.9,396.9,223,396.9,223z"/>
			</g>
		</g>
	</g>
	<g id="XMLID_24_">
		<g id="XMLID_34_">
			<g id="XMLID_38_">
				<path id="XMLID_39_" class="st0" d="M370.5,168.7c0,0,0,0.2,0.1,0.6c0.1,0.4,0.2,1,0.5,1.6c0.5,1.3,1.4,2.9,2.8,4.1
					c0.3,0.3,0.7,0.6,1,0.8c0.4,0.3,0.8,0.6,1.2,1c0.4,0.4,0.6,1,0.7,1.5c0.1,0.4,0.2,0.8,0.3,1.2c0.3,1.4,0.5,2.3,0.5,2.3
					s0.2,1.8,0.6,4.6c0.4,2.8,1.1,6.4,2,10.1c0.9,3.6,2,7.2,3,9.9c0.9,2.7,1.6,4.4,1.6,4.4s-0.8-1.7-2-4.3c-1.1-2.6-2.5-6.1-3.7-9.7
					c-1.2-3.6-2.2-7.3-2.8-10c-0.7-2.8-1-4.7-1-4.7s-0.1-1-0.2-2.4c-0.1-0.8,0-1.5-0.3-2c-0.3-0.5-1.2-1.2-1.8-2
					c-1.3-1.5-2-3.4-2.3-4.8c-0.1-0.7-0.2-1.3-0.2-1.7C370.5,168.9,370.5,168.7,370.5,168.7z"/>
			</g>
		</g>
	</g>
	<g id="XMLID_16_">
		<g id="XMLID_26_">
			<g id="XMLID_30_">
				<path id="XMLID_31_" class="st0" d="M383,176.4l4.3,7.8c0,0,0.3,1.1,0.8,2.6c0.5,1.6,1.2,3.7,1.6,5.9c0.4,2.2,0.6,4.5,0.4,6.1
					c-0.1,0.8-0.2,1.5-0.3,2c-0.1,0.5-0.2,0.7-0.2,0.7s0-0.3,0.1-0.8c0.1-0.5,0.1-1.2,0.1-2c0-1.6-0.5-3.8-1.2-5.8
					c-0.7-2.1-1.6-4-2.3-5.5c-0.7-1.5-1.2-2.5-1.2-2.5L383,176.4z"/>
			</g>
		</g>
	</g>
	<g id="XMLID_8_">
		<g id="XMLID_18_">
			<g id="XMLID_22_">
				<path id="XMLID_23_" class="st0" d="M376,167.2c0,0-0.2-0.2-0.3-0.7c-0.1-0.5-0.1-1.1,0.3-1.8c0.3-0.6,0.9-1.1,1.4-1.4
					c0.3-0.1,0.5-0.2,0.7-0.3c0.1,0,0.1,0,0.3-0.1c0,0,0.1,0,0.1,0s0,0,0.1,0c0.1,0,0.2,0,0.4,0.1c0.4,0.1,0.8,0.2,1.3,0.5
					c0.9,0.6,1.7,1.6,2.1,2.9c0.3,1.2,0.3,2.3,0.2,3.2c-0.1,0.8-0.2,1.4-0.2,1.4s-0.1-0.6-0.2-1.4c-0.1-0.8-0.4-1.9-0.9-2.8
					c-0.5-0.8-1.3-1.4-1.9-1.6c-0.3-0.1-0.5-0.1-0.6-0.1c-0.2,0-0.3,0-0.3,0s0,0,0,0c0.1,0,0,0,0,0c-0.1,0-0.2-0.1-0.3-0.1
					c-0.3,0-0.7,0-1.1,0.3c-0.4,0.2-0.7,0.7-0.8,1C375.9,166.9,376,167.3,376,167.2z"/>
			</g>
		</g>
	</g>
</g>
</svg>
